<?xml version="1.0" standalone="no"?>
<!DOCTYPE svg PUBLIC "-//W3C//DTD SVG 1.1//EN" "http://www.w3.org/Graphics/SVG/1.1/DTD/svg11.dtd" >
<svg xmlns="http://www.w3.org/2000/svg" xmlns:xlink="http://www.w3.org/1999/xlink" version="1.1">
<metadata></metadata>
<defs>
<font id="kefabold" horiz-adv-x="1287" >
<font-face units-per-em="2048" ascent="1638" descent="-410" />
<missing-glyph horiz-adv-x="503" />
<glyph unicode="&#xfb01;" horiz-adv-x="1409" d="M50 927q0 34 13.5 48t45.5 14h88q6 245 125 340.5t440 95.5q295 0 381 -29.5t86 -113.5q0 -103 -90 -168q-296 148 -462 148q-123 0 -160.5 -50.5t-37.5 -185.5v-37h556q105 0 144 -8.5t44.5 -31.5t5.5 -65v-474q0 -145 6 -273h118q17 -33 17 -74q0 -35 -14.5 -49 t-56.5 -14h-480q-17 42 -17 79q0 31 14 44.5t45 13.5h81q6 128 6 273q0 211 -3.5 283.5t-16 106t-37 42t-72.5 8.5h-340v-440q0 -145 5 -273h149q17 -33 17 -74q0 -35 -14.5 -49t-56.5 -14h-511q-17 42 -17 79q0 31 14 44.5t45 13.5h82q5 128 5 273v430h-129q-18 43 -18 87z " />
<glyph unicode="&#xfb02;" horiz-adv-x="1483" d="M50 927q0 34 13.5 48t45.5 14h88q6 245 118.5 340.5t342.5 95.5q185 0 394 -50l38 50q123 0 161.5 -8.5t44.5 -31.5t6 -65v-769q0 -286 5 -414h127q18 -33 18 -74q0 -35 -14.5 -49t-56.5 -14h-490q-17 42 -17 79q0 31 14 44.5t45 13.5h82q5 128 5 345v691 q-261 89 -397 89q-98 0 -121 -55t-23 -167v-51h243q17 -40 17 -85q0 -38 -14 -51t-54 -13h-192v-430q0 -145 5 -273h158q17 -33 17 -74q0 -35 -14 -49t-57 -14h-520q-17 42 -17 79q0 31 14 44.5t45 13.5h82q5 128 5 273v430h-129q-18 43 -18 87z" />
<glyph horiz-adv-x="0" />
<glyph unicode="&#xd;" horiz-adv-x="635" />
<glyph unicode=" "  horiz-adv-x="503" />
<glyph unicode="&#x09;" horiz-adv-x="503" />
<glyph unicode="&#xa0;" horiz-adv-x="503" />
<glyph unicode="!" horiz-adv-x="739" d="M231 122q0 69 45 105t122 36q87 0 127.5 -36t40.5 -105t-45 -105.5t-123 -36.5q-86 0 -126.5 36.5t-40.5 105.5zM233 1346q70 19 191 19q114 0 121.5 -69.5t-51.5 -900.5h-182q-57 763 -79 951z" />
<glyph unicode="&#x22;" horiz-adv-x="949" d="M123 1400q60 25 153 25q96 0 103.5 -69.5t-42.5 -386.5h-172q-20 249 -42 431zM563 1400q60 25 154 25q95 0 102.5 -69.5t-42.5 -386.5h-172q-20 249 -42 431z" />
<glyph unicode="#" d="M25 464q0 54 18 76t49 22h152l97 296h-152q-17 63 -17 106q0 54 18 76t49 22h168l106 323q108 -2 147.5 -18t48 -49.5t-5.5 -76.5l-59 -179h245l106 323q108 -2 147.5 -18t48 -49.5t-5.5 -76.5l-59 -179h132q17 -53 17 -114q0 -40 -17 -65t-61 -25h-137l-97 -296h148 q17 -53 17 -114q0 -40 -17 -65t-61 -25h-153l-123 -377q-108 2 -147.5 18t-48.5 49.5t6 76.5l76 233h-245l-123 -377q-108 2 -147.5 18t-48.5 49.5t6 76.5l76 233h-136q-17 63 -17 106zM481 562h245l97 296h-245z" />
<glyph unicode="$" d="M136 139q0 84 69 149q158 -80 304 -105v391q-189 55 -274 147t-85 239q0 198 132.5 304.5t320.5 116.5v190q54 17 97 17q54 0 66.5 -18t12.5 -48v-139q179 -5 255 -31.5t76 -113.5q0 -83 -61 -149q-147 66 -270 90v-376q170 -51 278.5 -132.5t108.5 -275.5 q0 -188 -132.5 -291.5t-348.5 -117.5v-199q-33 -17 -104 -17q-40 0 -56 17t-16 61v133q-180 3 -276.5 33t-96.5 125zM446 1041q0 -81 48.5 -122.5t154.5 -79.5v362q-105 -2 -154 -44t-49 -116zM639 170q131 3 180.5 37t49.5 114q0 93 -73 140.5t-157 74.5v-366z" />
<glyph unicode="%" horiz-adv-x="2501" d="M140 937q0 195 123 321.5t354 126.5q242 0 337.5 -97.5t95.5 -275.5q0 -192 -122.5 -318.5t-354.5 -126.5q-241 0 -337 97.5t-96 272.5zM470 1004q0 -155 30.5 -206.5t96.5 -51.5q70 0 96.5 50.5t26.5 149.5q0 152 -31 207t-95 55t-94 -51t-30 -153zM805 -102 q-7 22 11 62l738 1581q56 -9 95 -27q49 -22 53 -44t-9 -49l-686 -1471l-56 -119q-38 -3 -102 28q-37 17 -44 39zM1451 357q0 195 122.5 321.5t354.5 126.5q241 0 337 -97.5t96 -275.5q0 -192 -122.5 -318.5t-354.5 -126.5q-241 0 -337 97.5t-96 272.5zM1781 424 q0 -155 30.5 -206.5t96.5 -51.5q69 0 95.5 50.5t26.5 149.5q0 153 -30.5 207.5t-94.5 54.5t-94 -51t-30 -153z" />
<glyph unicode="&#x26;" horiz-adv-x="1528" d="M82 250q0 166 168 301q95 76 167 135q-98 97 -140 146q-86 103 -86 217q0 156 130 246t319 90q201 0 302.5 -68.5t101.5 -194.5q0 -97 -71.5 -189.5t-228.5 -217.5l269 -252q41 103 56 241q101 0 151 -18.5t50 -82.5q0 -110 -87 -251q-8 -13 -18 -27q110 -99 134 -117 q46 -35 86.5 -53t98.5 -18q23 -83 -3.5 -119.5t-153.5 -36.5q-154 0 -188 22t-80 71q-18 18 -76 74q-38 -26 -81 -53q-192 -115 -441 -115q-193 0 -286 67t-93 203zM398 326q0 -80 51.5 -126.5t144.5 -46.5q141 0 248 82q14 10 26 21l-317 301q-42 -36 -72 -64 q-81 -77 -81 -167zM471 1074q0 -72 52 -138q20 -26 85 -91q43 38 79 75q75 76 75 151q0 66 -40.5 103.5t-108.5 37.5q-60 0 -100.5 -35t-41.5 -103z" />
<glyph unicode="'" horiz-adv-x="507" d="M123 1400q60 25 153 25q96 0 103.5 -69.5t-42.5 -386.5h-172q-20 249 -42 431z" />
<glyph unicode="(" horiz-adv-x="687" d="M59 603q0 451 331 984l179 -100q-56 -125 -104 -288.5t-72 -319.5t-24 -281q0 -124 24 -280t72 -319.5t104 -288.5l-179 -100q-331 533 -331 993z" />
<glyph unicode=")" horiz-adv-x="687" d="M120 -290q55 125 103 288.5t72 319.5t24 280q0 125 -24 281t-72 319.5t-103 288.5l178 100q331 -533 331 -984q0 -460 -331 -993z" />
<glyph unicode="*" horiz-adv-x="1321" d="M207 1026q-6 66 18 136q29 90 98 76q66 -14 314 -205q-23 209 -74 367q60 25 134 25q95 0 103 -70q7 -67 -98 -360q191 85 326 184q42 -50 66 -121q29 -90 -35 -119q-62 -28 -374 -19q140 -156 276 -253q-34 -56 -95 -99q-76 -57 -124 -5q-45 49 -133 350 q-104 -181 -155 -340q-64 14 -124 59q-77 56 -43 117q33 58 293 234q-206 44 -373 43z" />
<glyph unicode="+" d="M137 697q0 54 18 76t49 22h327v406q83 17 126 17q54 0 76 -17.5t22 -48.5v-357h376q18 -52 18 -114q0 -40 -17.5 -65t-60.5 -25h-316v-406q-63 -17 -134 -17q-40 0 -65 17t-25 61v345h-376q-18 63 -18 106z" />
<glyph unicode="," horiz-adv-x="924" d="M264 -267q124 111 178 244q-146 28 -146 147q0 66 45 102.5t134 36.5q79 0 124 -34.5t45 -116.5q0 -123 -109 -286.5t-188 -163.5q-61 0 -83 71z" />
<glyph unicode="-" horiz-adv-x="768" d="M81 547q0 54 18 71.5t49 17.5h522q18 -44 18 -115q0 -49 -17.5 -69.5t-60.5 -20.5h-511q-18 54 -18 116z" />
<glyph unicode="." horiz-adv-x="924" d="M275 122q0 69 49.5 105t137.5 36q97 0 142 -36t45 -105t-49.5 -105.5t-137.5 -36.5q-97 0 -142 36.5t-45 105.5z" />
<glyph unicode="/" horiz-adv-x="825" d="M-30 -274.5q-9 21.5 5 62.5l648 1777q74 -10 177 -48q51 -18 56.5 -39t-4.5 -51l-606 -1660l-45 -126q-56 2 -185 49q-37 14 -46 35.5z" />
<glyph unicode="0" d="M62 594q0 408 162 599.5t474 191.5q249 0 387 -127t138 -494q0 -401 -162 -592.5t-474 -191.5q-249 0 -387 127t-138 487zM407 728q0 -343 63.5 -449.5t183.5 -106.5q113 0 168.5 94t55.5 365q0 339 -65 450.5t-181 111.5q-105 0 -165 -94t-60 -371z" />
<glyph unicode="1" d="M254 79q0 31 14 44.5t45 13.5h192q5 128 5 740q0 118 -3.5 163.5t-15.5 69.5t-38 32.5t-95 8.5h-87q-17 32 -17 65q0 74 176 111.5t261 37.5q58 0 82.5 -11.5t35 -41t10.5 -89.5v-417q0 -541 5 -669h243q17 -33 17 -74q0 -35 -14.5 -49t-56.5 -14h-742q-17 42 -17 79z " />
<glyph unicode="2" d="M108 157q0 164 120.5 284.5t327 280t206.5 288.5q0 106 -66 152.5t-166 46.5q-76 0 -139 -12q-35 -66 -42 -70.5t-65.5 -18.5t-88 9.5t-56 83t-26.5 99.5q0 25 15.5 34t151.5 30t323 21q235 0 368.5 -76.5t133.5 -271.5q0 -124 -68 -235t-319.5 -284t-240.5 -351h35 q320 0 538 108q54 -85 54 -162q0 -65 -41 -89t-167 -24h-759q-29 59 -29 157z" />
<glyph unicode="3" d="M111 99q0 69 54 146q217 -89 362 -89q115 0 184.5 50.5t69.5 145.5q0 124 -88.5 185.5t-227.5 61.5h-49q-29 0 -43.5 16t-14.5 52q0 58 29 108h90q156 0 211.5 51.5t55.5 146.5q0 124 -56 180t-153 56q-61 0 -121 -12q-35 -66 -42 -70.5t-66 -18.5t-88.5 9.5t-55.5 83 t-26 99.5q0 25 15.5 34t151 30t330.5 21q199 0 327 -77t128 -261q0 -240 -275 -351q312 -66 312 -301q0 -181 -171 -298t-508 -117q-225 0 -280 23.5t-55 95.5z" />
<glyph unicode="4" d="M52 429q0 44 22.5 89.5t294 442t291 410.5t78.5 14h148q61 0 89.5 -20.5t28.5 -105.5v-762h131q17 -50 17 -96q0 -38 -13 -54.5t-54 -16.5h-81q3 -136 5 -193h146q18 -33 18 -74q0 -35 -14.5 -49t-57.5 -14h-588q-18 42 -18 79q0 31 14 44.5t45 13.5h154q5 121 5 193 h-632q-29 46 -29 99zM367 497h346q0 604 -8.5 604t-337.5 -604z" />
<glyph unicode="5" d="M135 108q0 67 52 137q186 -89 323 -89q145 0 211 63t66 181q0 138 -64.5 197.5t-167.5 59.5q-85 0 -183 -33h-154q-34 42 -29 125l32 499q2 65 27 91t74 26h755q17 -43 17 -96q0 -39 -17 -55t-60 -16h-516l-31 -378q131 26 242 26q195 0 307.5 -85.5t112.5 -283.5 q0 -222 -170.5 -359.5t-516.5 -137.5q-196 0 -253 28t-57 100z" />
<glyph unicode="6" d="M112 503q0 428 180.5 655t534.5 227q170 0 232 -25.5t62 -93.5q0 -73 -59 -146q-163 79 -317 79q-159 0 -224 -134q-47 -96 -60 -278q149 50 286 50q222 0 334 -86.5t112 -279.5q0 -206 -154 -348.5t-457 -142.5q-246 0 -358 124t-112 399zM456 638q0 -307 55 -387 q56 -79 170 -79q91 0 129 50.5t38 154.5q0 158 -55 221t-173 63q-90 0 -164 -23z" />
<glyph unicode="7" d="M96 1262q0 55 38.5 79t122.5 24h809q54 0 76.5 -19t22.5 -54q0 -74 -42 -161t-254 -440t-192 -691h-202q-139 0 -139 128q0 131 93.5 320t227 428t142.5 322h-109q-314 0 -540 -99q-54 81 -54 163z" />
<glyph unicode="8" d="M80 270q0 219 327 401q-286 150 -286 343q0 167 158 269t408 102q231 0 352 -77.5t121 -212.5q0 -204 -323 -349q187 -75 261 -146q101 -96 101 -221q0 -168 -169 -283.5t-468 -115.5q-244 0 -363 73.5t-119 216.5zM424 340q0 -74 53 -121t158 -47q102 0 161 46t59 128 q0 156 -287 254q-144 -129 -144 -260zM465 1044q0 -147 212 -238q138 104 138 222q0 80 -50 122.5t-132 42.5q-85 0 -126.5 -41.5t-41.5 -107.5z" />
<glyph unicode="9" d="M83 894q0 217 154 354t421 137q276 0 396 -133t120 -436q0 -429 -188 -632.5t-615 -203.5q-188 0 -227 23t-39 82q0 73 49 140q127 -53 262 -53q210 0 312 107q71 75 92 294q-135 -45 -276 -45q-252 0 -356.5 95t-104.5 271zM428 987q0 -159 85.5 -221t314.5 -41 q1 28 1 59q0 202 -56 305.5t-178 103.5q-93 0 -130 -52t-37 -154z" />
<glyph unicode=":" horiz-adv-x="924" d="M275 122q0 69 49.5 105t137.5 36q97 0 142 -36t45 -105t-49.5 -105.5t-137.5 -36.5q-97 0 -142 36.5t-45 105.5zM275 865q0 69 49.5 105.5t137.5 36.5q97 0 142 -36.5t45 -105.5q0 -68 -49.5 -104.5t-137.5 -36.5q-97 0 -142 36.5t-45 104.5z" />
<glyph unicode=";" horiz-adv-x="924" d="M264 -267q124 111 178 244q-146 28 -146 147q0 66 45 102.5t134 36.5q79 0 124 -34.5t45 -116.5q0 -123 -109 -286.5t-188 -163.5q-61 0 -83 71zM275 865q0 69 49.5 105.5t137.5 36.5q97 0 142 -36.5t45 -105.5q0 -68 -49.5 -104.5t-137.5 -36.5q-97 0 -142 36.5 t-45 104.5z" />
<glyph unicode="&#x3c;" d="M155 689l858 475l58 -86q62 -90 14.5 -138.5t-685.5 -289.5l722 -318l-41 -99q-27 -66 -94 -65t-430 202t-384 221.5t-18 97.5z" />
<glyph unicode="=" d="M137 437q0 54 18 76t49 22h927q18 -52 18 -114q0 -40 -17.5 -65t-60.5 -25h-916q-18 63 -18 106zM137 897q0 54 18 76t49 22h927q18 -52 18 -114q0 -40 -17.5 -65t-60.5 -25h-916q-18 63 -18 106z" />
<glyph unicode="&#x3e;" d="M163 332l722 318q-638 241 -685 289.5t15 138.5l57 86l858 -475q3 -77 -17.5 -97.5t-384 -221.5t-430 -202t-94.5 65z" />
<glyph unicode="?" horiz-adv-x="1168" d="M123 1300q0 25 20.5 39t151.5 30t318 16q196 0 324.5 -67t128.5 -232t-172.5 -305t-223.5 -203.5t-51 -150.5v-30q-105 -22 -218 -22q-92 0 -92 87q0 54 42.5 119t206.5 193.5t164 246.5q0 95 -52.5 141.5t-140.5 46.5q-75 0 -128 -12q-35 -66 -42 -70.5t-69 -18.5 t-88.5 9.5t-52.5 83t-26 99.5zM332 122q0 69 49.5 105t137.5 36q96 0 141 -36t45 -105t-49 -105.5t-137 -36.5q-97 0 -142 36.5t-45 105.5z" />
<glyph unicode="@" horiz-adv-x="2076" d="M101 645q0 378 219.5 579t797.5 201q463 4 654.5 -139.5t191.5 -572.5q0 -372 -124.5 -547.5t-378.5 -175.5q-83 0 -134.5 9.5t-146.5 77.5q-75 -38 -171 -67.5t-182 -29.5q-144 0 -211.5 67t-67.5 188q0 169 116 251t365 82h110q-9 154 -51 210.5t-126 56.5 q-47 0 -100 -12q-35 -66 -42 -70t-69 -18t-88 9t-52.5 81t-26.5 98q0 25 15.5 34t151.5 30t284 21q175 0 275 -60.5t100 -234.5v-356q-1 -119 29 -169.5t110 -50.5q81 0 107.5 72.5t26.5 402.5q0 394 -160 517t-510 123q-349 0 -489.5 -93.5t-140.5 -431.5q0 -148 21 -267 q-85 -33 -170 -33q-73 0 -103 41t-30 177zM836 290q0 -68 36 -102.5t104 -34.5q54 0 95.5 23t54.5 65.5t13 110.5v57q-72 15 -147 15q-84 0 -120 -28t-36 -106z" />
<glyph unicode="A" horiz-adv-x="1469" d="M11 85q0 27 14.5 39.5t43.5 12.5h54q71 193 214.5 626.5t190.5 527t179 93.5q167 0 189 -11t197 -525.5t253 -710.5h94q17 -36 17 -74q0 -35 -13 -49t-42 -14h-511q-17 44 -17 85q0 27 15 39.5t44 12.5h44q-15 72 -77 287h-424q-56 -210 -70 -287h95q17 -36 17 -74 q0 -35 -13 -49t-41 -14h-436q-17 44 -17 85zM520 591h331q-153 504 -171.5 504t-159.5 -504z" />
<glyph unicode="B" horiz-adv-x="1371" d="M91 84q0 27 15 39.5t44 12.5h73q6 129 6 568q0 396 -6 524h-114q-18 44 -18 84q0 28 15 40.5t44 12.5h482q303 0 450.5 -79t147.5 -240q0 -222 -278 -337q347 -65 347 -316q0 -171 -157.5 -282t-551.5 -111l-481 -1q-18 44 -18 85zM538 379q0 -115 27 -151t148 -36 q126 0 183.5 46.5t57.5 152.5q0 114 -69.5 173t-214.5 59q-64 0 -132 -10v-234zM538 796q50 -10 122 -10q120 0 172.5 44.5t52.5 140.5q0 104 -56 153t-169 49q-59 0 -121 -10q-1 -95 -1 -367z" />
<glyph unicode="C" horiz-adv-x="1271" d="M112 610q0 399 177 587t502 188q213 0 295 -30.5t82 -111.5q0 -63 -64 -136q-189 86 -362 86q-145 0 -215.5 -104t-70.5 -374q0 -319 76.5 -431t268.5 -112q170 0 313 92q67 -74 67 -145q0 -68 -140.5 -103.5t-328.5 -35.5q-304 0 -452 133t-148 497z" />
<glyph unicode="D" horiz-adv-x="1471" d="M91 84q0 27 15 39.5t44 12.5h73q6 129 6 671q0 293 -6 421h-114q-18 44 -18 84q0 28 15 40.5t44 12.5h422q452 0 620 -143.5t168 -476.5q0 -369 -173.5 -557t-588.5 -188l-489 -1q-18 44 -18 85zM538 514q0 -237 29 -279.5t151 -42.5q145 0 221 95t76 382 q0 283 -89.5 393.5t-257.5 110.5q-72 0 -125 -10q-5 -140 -5 -649z" />
<glyph unicode="E" horiz-adv-x="1267" d="M91 84q0 27 15 39.5t44 12.5h73q6 129 6 671q0 293 -6 421h-114q-18 44 -18 84q0 28 15 40.5t44 12.5h910q64 0 91.5 -19.5t27.5 -80.5q0 -74 -49 -152q-210 85 -538 85h-48q-6 -98 -6 -399h504q17 -53 17 -110q0 -34 -12 -45.5t-46 -11.5h-463q1 -385 6 -465h83 q337 0 534 79q44 -66 44 -143q0 -55 -41 -79t-166 -24l-889 -1q-18 44 -18 85z" />
<glyph unicode="F" horiz-adv-x="1190" d="M91 85q0 27 15 39.5t44 12.5h73q6 128 6 670q0 293 -6 421h-114q-18 44 -18 84q0 28 15 40.5t44 12.5h910q64 0 91.5 -19.5t27.5 -80.5q0 -74 -49 -152q-210 85 -538 85h-48q-6 -98 -6 -429h491q17 -53 17 -110q0 -34 -12 -45.5t-45 -11.5h-451q1 -363 6 -465h173 q17 -36 17 -74q0 -35 -13 -49t-42 -14h-570q-18 44 -18 85z" />
<glyph unicode="G" horiz-adv-x="1381" d="M112 619q0 390 181.5 578t524.5 188q215 0 296 -30.5t81 -110.5q0 -77 -62 -155q-199 104 -387 104q-139 0 -214.5 -99t-75.5 -374q0 -322 74 -435t257 -113q88 0 175 24q0 190 -4 236.5t-11.5 66.5t-24 28.5t-41.5 8.5q-18 34 -18 67q0 39 17.5 55t60.5 16h218 q67 0 90 -22t23 -89v-209q0 -132 10 -344q-55 -10 -133 -10q-21 0 -77 70q-184 -90 -377 -90q-309 0 -446 151t-137 488z" />
<glyph unicode="H" horiz-adv-x="1592" d="M91 85q0 27 15 39.5t44 12.5h83q5 128 5 670q-1 293 -6 421h-123q-18 44 -18 84q0 28 15 40.5t44 12.5h517q17 -37 17 -74q0 -36 -13 -49.5t-42 -13.5h-77q-4 -107 -4 -333v-96h497q-1 301 -7 429h-113q-17 44 -17 84q0 28 14.5 40.5t43.5 12.5h517q17 -37 17 -74 q0 -36 -13 -49.5t-41 -13.5h-87q-5 -110 -5 -341v-81q0 -541 6 -669h123q17 -36 17 -74q0 -35 -13 -49t-41 -14h-521q-17 44 -17 85q0 27 14.5 39.5t43.5 12.5h73q5 106 6 495h-497q1 -389 5 -495h114q17 -36 17 -74q0 -35 -13 -49t-42 -14h-520q-18 44 -18 85z" />
<glyph unicode="I" horiz-adv-x="805" d="M91 85q0 27 15 39.5t44 12.5h93q5 128 5 670q-1 293 -6 421h-133q-18 44 -18 84q0 28 15 40.5t44 12.5h547q17 -37 17 -74q0 -36 -13 -49.5t-42 -13.5h-97q-4 -107 -4 -329v-93q0 -541 5 -669h134q17 -36 17 -74q0 -35 -13 -49t-42 -14h-550q-18 44 -18 85z" />
<glyph unicode="J" horiz-adv-x="802" d="M-84 -273q0 78 45 139q151 -53 218 -53q19 0 31 4q55 20 55 250v740q0 293 -7 421h-133q-17 44 -17 84q0 28 15 40.5t44 12.5h546q17 -37 17 -74q0 -36 -13 -49.5t-41 -13.5l-96 -1q-6 -127 -6 -421v-775q0 -140 -40 -224t-127.5 -135t-278.5 -51q-129 0 -170.5 23 t-41.5 83z" />
<glyph unicode="K" horiz-adv-x="1481" d="M91 85q0 27 15 39.5t44 12.5h93q6 128 6 670q0 293 -6 421h-133q-18 44 -18 84q0 28 15 40.5t44 12.5h519q17 -37 17 -74q0 -36 -13 -49.5t-42 -13.5h-69q-4 -128 -4 -527q96 98 231.5 244t244.5 282h-89q-18 44 -18 84q0 28 15 40.5t44 12.5l432 1q17 -37 17 -74 q0 -36 -13 -49.5t-42 -13.5h-61l-415 -416q252 -406 318 -498t112 -134t114 -42q9 -38 9 -66q0 -36 -14 -56q-26 -36 -159 -36q-149 0 -204.5 29t-102 129.5t-250.5 500.5l-169 -196q1 -203 5 -306h105q17 -36 17 -74q0 -35 -13 -49t-42 -14h-522q-18 44 -18 85z" />
<glyph unicode="L" horiz-adv-x="1154" d="M91 84q0 27 15 39.5t44 12.5h73q6 129 6 671q0 293 -7 421h-113q-18 44 -18 84q0 28 15 40.5t44 12.5h527q17 -37 17 -74q0 -36 -13 -49.5t-41 -13.5h-97q-5 -128 -5 -422q0 -541 6 -639h24q335 0 532 79q44 -66 44 -143q0 -55 -41 -79t-166 -24l-828 -1q-18 44 -18 85z " />
<glyph unicode="M" horiz-adv-x="1831" d="M53 85q0 27 15 39.5t44 12.5h65q11 128 29 525q18 377 17 548v18h-113q-17 44 -17 84q0 28 15 40.5t44 12.5h545q46 -193 99 -385t103 -396.5t57.5 -204.5t104 388.5t137.5 597.5h524q17 -37 17 -74q0 -36 -13 -49.5t-41 -13.5h-76q0 -169 18.5 -566t28.5 -525h95 q17 -36 17 -74q0 -35 -13 -49t-42 -14h-456q-17 44 -17 85q0 27 14.5 39.5t43.5 12.5h37q1 37 1 95q0 242 -20 844q-77 -329 -149.5 -572t-111 -309t-141.5 -66q-154 0 -171 11t-95 246.5t-199 698.5q-2 -336 -1 -560q0 -281 2 -388h77q17 -36 17 -74q0 -35 -13 -49t-42 -14 h-418q-18 44 -18 85z" />
<glyph unicode="N" horiz-adv-x="1592" d="M91 85q0 27 15 39.5t44 12.5h83q6 128 6 670q-1 293 -7 421h-103q-18 44 -18 84q0 28 15 40.5t44 12.5h429q134 -257 258 -476t254 -543v461q0 293 -6 421h-113q-17 44 -17 84q0 28 15 40.5t44 12.5h450q17 -37 17 -74q0 -36 -13 -49.5t-42 -13.5h-87q-4 -128 -4 -422 v-671q0 -95 -22 -120t-116 -25q-187 0 -212 14t-200 303t-323 646q0 -688 5 -816h104q17 -36 17 -74q0 -35 -13 -49t-41 -14h-445q-18 44 -18 85z" />
<glyph unicode="O" horiz-adv-x="1501" d="M112 619q0 390 181.5 578t495.5 188q296 0 449.5 -137.5t153.5 -501.5q0 -390 -181.5 -578t-504.5 -188q-288 0 -441 137.5t-153 501.5zM456 716q0 -321 81 -432.5t226 -111.5q152 0 218 108.5t66 368.5q0 330 -80.5 437t-226.5 107q-152 0 -218 -108.5t-66 -368.5z" />
<glyph unicode="P" horiz-adv-x="1331" d="M91 85q0 27 15 39.5t44 12.5h93q5 128 5 670q0 293 -5 421h-133q-17 44 -17 84q0 28 14.5 40.5t43.5 12.5h482q388 0 522 -93.5t134 -307.5q0 -220 -162 -345.5t-521 -125.5h-48q1 -259 5 -356h164q17 -36 17 -74q0 -35 -13 -49t-42 -14h-580q-18 44 -18 85zM558 656h88 q154 0 226.5 55t72.5 191q0 129 -68.5 200t-212.5 71q-60 0 -101 -10q-5 -63 -5 -357v-150z" />
<glyph unicode="Q" horiz-adv-x="1505" d="M112 609q0 400 181.5 588t495.5 188q296 0 449.5 -137.5t153.5 -511.5q0 -400 -181.5 -588t-504.5 -188q-288 0 -441 137.5t-153 511.5zM359 -225q0 42 15.5 57.5t65.5 25.5t171 10q91 0 292.5 -20t307.5 -20q94 0 158 20q28 -55 28 -118q0 -75 -36 -101t-113 -26 q-122 0 -343.5 43.5t-334.5 43.5q-102 0 -182 -28q-29 57 -29 113zM456 706q0 -331 81 -442.5t226 -111.5q152 0 218 108.5t66 378.5q0 340 -80.5 447t-226.5 107q-152 0 -218 -108.5t-66 -378.5z" />
<glyph unicode="R" horiz-adv-x="1440" d="M91 85q0 27 15 39.5t44 12.5h93q5 128 5 670q0 293 -5 421h-133q-17 44 -17 84q0 28 14.5 40.5t43.5 12.5h519q312 0 445.5 -87t133.5 -278q0 -264 -327 -366q82 -34 139 -105.5t120 -200t103.5 -160t117.5 -31.5q12 -40 12 -69q0 -35 -18 -54q-33 -34 -167 -34 q-156 0 -215.5 33.5t-107.5 204t-103.5 253t-152.5 82.5q-52 0 -92 -10q1 -298 5 -406h145q17 -36 17 -74q0 -35 -13 -49t-41 -14h-562q-18 44 -18 85zM558 716h81q129 0 197.5 48.5t68.5 154.5q0 137 -67.5 195.5t-171.5 58.5q-63 0 -103 -10q-5 -63 -5 -357v-90z" />
<glyph unicode="S" horiz-adv-x="1227" d="M94 139q0 84 70 149q229 -116 429 -116q131 0 183 34.5t52 114.5q0 94 -81 146t-267 105q-198 53 -284.5 147t-86.5 241q0 201 142.5 313t392.5 112q257 0 340.5 -30t83.5 -117q0 -83 -61 -149q-231 104 -401 104q-113 0 -157 -39t-44 -113q0 -88 55 -131t222 -92 q210 -55 323.5 -139t118.5 -274q0 -216 -155.5 -320.5t-453.5 -104.5q-216 0 -318.5 32t-102.5 127z" />
<glyph unicode="T" horiz-adv-x="1319" d="M1 1265q0 68 34 149q206 -49 518 -49h673q47 0 69.5 -15t22.5 -64q0 -90 -53 -173q-187 85 -435 85h-25q-5 -98 -5 -392q0 -541 5 -669h153q18 -36 18 -74q0 -35 -13 -49t-42 -14h-590q-18 44 -18 85q0 27 15 39.5t44 12.5h112q6 128 6 670q0 293 -5 391 q-348 -19 -391 -19q-49 0 -71 18t-22 68z" />
<glyph unicode="U" horiz-adv-x="1436" d="M81 1312q0 28 14.5 40.5t43.5 12.5h478q17 -37 17 -74q0 -36 -13 -49.5t-41 -13.5h-68q-5 -132 -5 -581q0 -292 59 -383.5t186 -91.5q134 0 188.5 81t54.5 323q0 520 -6 652h-114q-18 44 -18 84q0 28 15 40.5t44 12.5h460q17 -37 17 -74q0 -36 -13 -49.5t-41 -13.5h-77 q-4 -107 -4 -450v-147q0 -379 -149.5 -515t-443.5 -136q-266 0 -367 98.5t-101 365.5q0 656 -5 784h-94q-17 44 -17 84z" />
<glyph unicode="V" horiz-adv-x="1436" d="M11 1312q0 28 15 40.5t44 12.5h497q17 -37 17 -74q0 -36 -13 -49.5t-41 -13.5h-49q22 -108 150.5 -533.5t147 -425.5t127.5 421t116 538h-94q-17 44 -17 84q0 28 14.5 40.5t44.5 12.5h438q17 -37 17 -74q0 -36 -13 -49.5t-41 -13.5h-48q-65 -193 -210.5 -642t-192.5 -527 t-197 -78q-159 0 -176 11t-186.5 525.5t-247.5 710.5h-84q-18 44 -18 84z" />
<glyph unicode="W" horiz-adv-x="2002" d="M21 1312q0 28 15 40.5t44 12.5h497q17 -37 17 -74q0 -36 -13 -49.5t-42 -13.5h-49q11 -128 86 -543.5t94 -415.5t112 537t109.5 548t229.5 11q75 0 103.5 -29.5t117.5 -548t107.5 -518.5t87.5 411t76 548h-84q-18 44 -18 84q0 28 15 40.5t44 12.5h402q18 -37 18 -74 q0 -36 -13 -49.5t-42 -13.5h-48q-56 -213 -160 -652t-148 -517t-194 -78q-177 0 -194.5 11t-97 495.5t-84.5 484.5t-80.5 -417.5t-119.5 -495.5t-194 -78q-159 0 -176 11t-132.5 515.5t-184.5 720.5h-84q-17 44 -17 84z" />
<glyph unicode="X" horiz-adv-x="1499" d="M70 85q0 27 15 39.5t44 12.5h64q65 89 332 592q-209 340 -332 499h-84q-17 44 -17 84q0 28 15 40.5t44 12.5h506q17 -37 17 -74q0 -36 -13 -49.5t-42 -13.5h-30q66 -147 221 -411q154 279 202 411h-85q-17 44 -17 84q0 28 14.5 40.5t43.5 12.5h431q18 -37 18 -74 q0 -36 -13 -49.5t-42 -13.5h-48q-125 -167 -368 -587q270 -407 338 -455.5t127 -48.5q16 -29 16 -71q0 -34 -19.5 -50t-71.5 -16q-232 0 -285 7.5t-82 42.5t-91 146.5t-204 355.5q-150 -310 -179 -415h114q17 -36 17 -74q0 -35 -13 -49t-42 -14h-484q-17 44 -17 85z" />
<glyph unicode="Y" horiz-adv-x="1428" d="M32 1312q0 28 15 40.5t44 12.5h497q17 -37 17 -74q0 -36 -13 -49.5t-42 -13.5h-48q41 -117 144.5 -362.5t117.5 -245.5t103 236t126 372h-93q-17 44 -17 84q0 28 14.5 40.5t43.5 12.5h439q17 -37 17 -74q0 -36 -13 -49.5t-41 -13.5h-48q-113 -205 -416 -790 q0 -173 6 -301h162q17 -36 17 -74q0 -35 -13 -49t-41 -14h-600q-17 44 -17 85q0 27 14.5 39.5t43.5 12.5h112q7 128 7 274q-320 623 -436 817h-85q-17 44 -17 84z" />
<glyph unicode="Z" horiz-adv-x="1208" d="M80 86q0 45 34.5 96t199 309t275.5 442.5t144 264.5h-62q-305 0 -531 -99q-54 81 -54 163q0 55 38 79t122 24h758q73 0 92.5 -21t19.5 -62q0 -46 -41 -118.5t-191 -316.5t-264 -435t-127 -245h81q302 0 519 108q54 -85 54 -162q0 -65 -41 -89t-166 -24h-787q-73 0 -73 86 z" />
<glyph unicode="[" horiz-adv-x="942" d="M112 -237q0 44 18 57t49 13h35q6 127 6 749q0 685 -6 812h-35q-31 0 -49 13t-18 57q0 33 17 68h635q43 0 60 -16t17 -56q0 -61 -17 -95h-289q-6 -126 -6 -811q0 -594 6 -692h289q17 -34 17 -96q0 -39 -17 -55t-60 -16h-635q-17 35 -17 68z" />
<glyph unicode="\" horiz-adv-x="825" d="M-33.5 1478q5.5 21 56.5 39q103 38 177 48l648 -1777q14 -41 5 -62.5t-46 -35.5q-129 -47 -185 -49l-46 126l-605 1660q-10 30 -4.5 51z" />
<glyph unicode="]" horiz-adv-x="942" d="M101 -234q0 62 18 96h289q5 98 5 692q0 685 -5 811h-289q-18 34 -18 95q0 40 17.5 56t60.5 16h634q18 -35 18 -68q0 -44 -18 -57t-49 -13h-36q-5 -127 -5 -812q0 -622 5 -749h36q31 0 49 -13t18 -57q0 -33 -18 -68h-634q-43 0 -60.5 16t-17.5 55z" />
<glyph unicode="^" d="M298 1035q201 237 346 350q146 -114 346 -350l-49 -91q-229 148 -298 176q-67 -28 -296 -176z" />
<glyph unicode="_" horiz-adv-x="1048" d="M12 -79q0 54 18 66.5t49 12.5h940q17 -34 17 -95q0 -40 -17 -56t-61 -16h-929q-17 44 -17 88z" />
<glyph unicode="`" horiz-adv-x="402" d="M11 1362q0 81 165 142l215 -312l-104 -96q-276 162 -276 266z" />
<glyph unicode="a" horiz-adv-x="1108" d="M71 235q0 169 116 251t366 82h109q-9 154 -51 210.5t-126 56.5q-46 0 -100 -12q-35 -66 -41 -70q-8 -4 -70 -18q-24 -5 -42 -5q-30 0 -46 14q-26 23 -52.5 81t-26.5 98q0 25 20.5 39t151.5 30t279 16q176 0 276 -60.5t100 -234.5v-265q0 -222 19 -272q16 -41 51 -41 q8 0 17 2q15 -28 15 -55q0 -45 -53.5 -68.5t-144.5 -23.5q-40 0 -63 10t-72 77q-75 -38 -171 -67.5t-181 -29.5q-145 0 -212.5 67t-67.5 188zM360 290q0 -68 35.5 -102.5t103.5 -34.5q54 0 95.5 23t54.5 65.5t13 110.5v57q-72 15 -146 15q-84 0 -120 -28t-36 -106z" />
<glyph unicode="b" horiz-adv-x="1150" d="M9 1360q0 42 31 54t202 11q106 0 144.5 -8.5t44.5 -31.5t5 -65l-16 -371q61 30 138 49.5t165 19.5q164 0 261.5 -102t97.5 -350q0 -292 -137.5 -439t-372.5 -147q-82 0 -147.5 13.5t-101.5 29.5l-43 -32q-88 0 -111 14t-23 58q0 41 4.5 186.5t4.5 232.5q0 454 -3.5 570 t-15 158.5t-39 55t-71.5 12.5q-17 41 -17 82zM436 545v-339q26 -25 68.5 -39t88.5 -14q84 0 128.5 56t44.5 274q-1 199 -42 280.5t-124 81.5q-53 0 -89.5 -23.5t-55 -75.5t-19.5 -201z" />
<glyph unicode="c" horiz-adv-x="981" d="M69 434q0 280 143.5 432t428.5 152q150 0 207.5 -26t59.5 -87q0 -78 -49 -142q-166 82 -270 82t-153.5 -73.5t-49.5 -258.5q0 -183 48.5 -271.5t176.5 -88.5q104 0 267 77q42 -58 42 -122q0 -65 -106 -96.5t-248 -31.5q-277 0 -387 102.5t-110 351.5z" />
<glyph unicode="d" horiz-adv-x="1171" d="M69 433q0 298 139.5 441.5t379.5 143.5q44 0 70 -2t57 -5q0 39 -4 98t-15 101.5t-38.5 55t-71.5 12.5q-18 41 -18 82q0 42 31.5 54t201.5 11q106 0 145 -8.5t44.5 -31.5t5.5 -65v-709q0 -351 19 -417q17 -59 53 -58q5 0 10 1q20 -29 20 -58q0 -37 -86.5 -68t-137.5 -31 q-31 0 -50.5 16t-57.5 81q-106 -56 -185 -76.5t-158 -20.5q-170 0 -262 101.5t-92 351.5zM386 502q0 -176 39 -262.5t130 -86.5q56 0 94.5 22.5t52 59t13.5 163.5v404q-33 18 -72 30.5t-83 12.5q-85 0 -129.5 -64t-44.5 -279z" />
<glyph unicode="e" horiz-adv-x="1058" d="M69 458q0 263 138.5 411.5t371.5 148.5q208 0 302 -94.5t94 -298.5q0 -101 -40 -144t-175 -43h-372q3 -131 59 -205.5t197 -74.5q138 0 284 80q52 -51 52 -110q0 -80 -117.5 -111.5t-275.5 -31.5q-272 0 -395 110t-123 363zM386 576h53q111 0 169.5 6.5t68.5 22t10 51.5 q0 90 -39 139.5t-109 49.5q-74 0 -113 -60t-40 -209z" />
<glyph unicode="f" horiz-adv-x="836" d="M50 927q0 34 13.5 48t45.5 14h88q6 245 118.5 340.5t360.5 95.5q144 0 210.5 -27.5t66.5 -90.5t-53 -131q-201 86 -295 86q-80 0 -103 -52.5t-23 -169.5v-51h271q17 -40 17 -85q0 -38 -14 -51t-54 -13h-220v-430q0 -145 5 -273h158q17 -33 17 -74q0 -35 -14 -49t-57 -14 h-520q-17 42 -17 79q0 31 14 44.5t45 13.5h82q5 128 5 273v430h-129q-18 43 -18 87z" />
<glyph unicode="g" horiz-adv-x="1174" d="M81 -273q0 58 31.5 116.5t87.5 114.5q-51 17 -82.5 58t-31.5 100q0 70 47 123t126 89q-66 28 -108.5 99t-43.5 181q0 177 117 293.5t351 116.5q118 0 229 -39q143 67 170 67q145 0 159.5 -7.5t14.5 -27.5q0 -29 -28.5 -86.5t-54.5 -57.5t-150 48l-18 -30q49 -104 49 -205 q0 -178 -118 -283.5t-347 -105.5q-99 0 -124.5 -19t-25.5 -58t31 -58.5t321 -19.5q253 0 333.5 -56.5t80.5 -164.5q0 -165 -177 -260t-551 -95q-174 0 -231 44t-57 123zM318 -188q1 -59 36.5 -83.5t146.5 -24.5q155 0 231.5 35t76.5 104q0 58 -56 79.5t-385 21.5 q-23 -27 -36.5 -62.5t-13.5 -69.5zM383 651q0 -123 36 -169.5t108 -46.5q73 0 108 44.5t35 177.5q0 114 -36.5 165.5t-109.5 51.5q-71 0 -106 -45t-35 -178z" />
<glyph unicode="h" horiz-adv-x="1233" d="M36 1360q0 42 31 54t202 11q106 0 144.5 -8.5t44.5 -31.5t6 -65v-396q63 36 150.5 64.5t175.5 28.5q131 0 199.5 -62t68.5 -250q0 -493 18 -531t75 -37h3q15 -36 15 -75q0 -36 -23.5 -49t-89.5 -13q-162 0 -205 5t-59 32.5t-16 92.5v353q0 204 -37.5 273.5t-121.5 69.5 q-71 0 -112 -41.5t-41 -173.5v-201q0 -126 5 -273h119q17 -33 17 -74q0 -35 -14.5 -49t-56.5 -14h-471q-18 42 -18 79q0 31 14 44.5t45 13.5h73q5 165 5 310v564q0 39 -3.5 98t-14.5 101.5t-38.5 55t-72.5 12.5q-17 41 -17 82z" />
<glyph unicode="i" horiz-adv-x="658" d="M50 79q0 31 14 44.5t45 13.5h82q5 128 5 273q0 221 -3.5 293.5t-15.5 106t-37 42t-73 8.5q-17 28 -17 65q0 56 46 69t187 13q106 0 144.5 -8t44 -31.5t5.5 -65.5v-492q1 -145 6 -273h118q17 -33 17 -74q0 -35 -14.5 -49t-56.5 -14h-480q-17 42 -17 79zM130 1269 q0 66 51 108.5t145 42.5q96 0 136 -36.5t40 -95.5q0 -65 -48 -108t-154 -43q-90 0 -130 34.5t-40 97.5z" />
<glyph unicode="j" horiz-adv-x="648" d="M-117 -348q0 66 44 124q119 -36 181 -36q25 0 40 6q55 20 55 254v410q0 221 -3.5 293t-15.5 106t-39 42.5t-71 8.5q-17 28 -17 65q0 46 35 64t217 18q102 0 134 -10t37 -37.5t5 -127.5q0 -357 2 -523.5t2 -336.5q0 -142 -40 -226t-127.5 -135t-248.5 -51 q-107 0 -148.5 15t-41.5 77zM120 1269q1 66 51.5 108.5t144.5 42.5q96 0 136 -36.5t40 -95.5q0 -65 -48 -108t-154 -43q-90 0 -130 34.5t-40 97.5z" />
<glyph unicode="k" horiz-adv-x="1211" d="M36 79q0 31 14 44.5t45 13.5h82q5 128 5 345q0 454 -3.5 570t-15 158.5t-39 55t-71.5 12.5q-17 41 -17 82q0 42 31 54t202 11q106 0 144.5 -8.5t44.5 -31.5t6 -65v-755q71 52 158.5 134t138.5 142h-74q-17 35 -17 74t15.5 56.5t49.5 17.5h380q17 -34 17 -72 q0 -44 -17 -60t-59 -16h-45l-268 -249q116 -179 200.5 -285t124 -138t93.5 -32q8 -30 8 -54q1 -30 -13 -49q-24 -34 -167 -34q-118 0 -148 16.5t-54 57t-68.5 125t-154.5 254.5l-100 -95q0 -93 5 -221h90q17 -33 17 -74q0 -35 -14 -49t-57 -14h-452q-17 42 -17 79z" />
<glyph unicode="l" horiz-adv-x="654" d="M45 79q0 31 14 44.5t45 13.5h82q6 128 6 345q0 454 -4 570t-15 158.5t-38.5 55t-71.5 12.5q-18 41 -18 82q0 42 31.5 54t201.5 11q106 0 145 -8.5t44.5 -31.5t5.5 -65v-769q0 -286 5 -414h128q17 -33 17 -74q0 -35 -14.5 -49t-56.5 -14h-489q-18 42 -18 79z" />
<glyph unicode="m" horiz-adv-x="1812" d="M69 79q0 31 14 44.5t45 13.5h73q5 165 5 341q0 280 -26.5 331t-92.5 51q-18 40 -18 80q0 36 26.5 47t330.5 20q2 -21 2 -50t-2 -65q109 68 204.5 96.5t166.5 28.5q99 0 152 -30.5t75 -80.5q90 55 183 83t161 28q131 0 199.5 -62t68.5 -250q0 -493 18 -531t75 -37h3 q15 -36 15 -75q0 -36 -23.5 -49t-89.5 -13q-162 0 -205 5t-59 32.5t-16 92.5v353q0 204 -37.5 273.5t-121.5 69.5q-51 0 -92 -41.5t-41 -173.5q0 -355 5 -474h109q18 -33 18 -74q0 -35 -14.5 -49t-56.5 -14h-415q-17 42 -17 79q0 31 14 44.5t45 13.5h25q5 175 5 346 q0 204 -37.5 273.5t-121.5 69.5q-51 0 -92 -41.5t-41 -173.5v-201q0 -126 5 -273h72q17 -33 17 -74q0 -35 -14.5 -49t-56.5 -14h-424q-18 42 -18 79z" />
<glyph unicode="n" horiz-adv-x="1257" d="M69 79q0 31 14 44.5t45 13.5h73q5 165 5 341q0 280 -26.5 331t-92.5 51q-18 40 -18 80q0 36 26.5 47t330.5 20q2 -21 2 -50t-2 -65q109 68 209.5 96.5t168.5 28.5q141 0 209.5 -62t68.5 -250q0 -493 18 -531t75 -37h3q15 -36 15 -75q0 -36 -23.5 -49t-89.5 -13 q-162 0 -205 5t-59 32.5t-16 92.5v353q0 204 -37.5 273.5t-121.5 69.5q-71 0 -112 -41.5t-41 -173.5v-201q0 -126 5 -273h119q17 -33 17 -74q0 -35 -14.5 -49t-56.5 -14h-471q-18 42 -18 79z" />
<glyph unicode="o" horiz-adv-x="1111" d="M69 436q0 277 137.5 429.5t386.5 152.5q224 0 337 -117t113 -339q0 -277 -137 -429.5t-386 -152.5q-224 0 -337.5 117t-113.5 339zM386 530q0 -203 43.5 -290t137.5 -87q81 0 120.5 64.5t39.5 250.5q0 203 -43.5 290t-137.5 87q-81 0 -120.5 -64.5t-39.5 -250.5z" />
<glyph unicode="p" horiz-adv-x="1180" d="M48 -361q0 31 14 44.5t45 13.5h73q5 147 5 392v389q0 280 -26.5 331t-92.5 51q-18 40 -18 80q0 36 26.5 47t311.5 20q2 -19 2 -40t-2 -43q85 41 168.5 67.5t181.5 26.5q193 0 284.5 -106.5t91.5 -336.5q0 -309 -136.5 -452t-364.5 -143q-57 0 -91.5 4t-52.5 8 q0 -148 5 -295h139q17 -33 17 -74q0 -35 -14.5 -49t-56.5 -14h-491q-18 42 -18 79zM467 197q32 -19 66.5 -31.5t86.5 -12.5q87 0 131.5 59.5t44.5 256.5q0 234 -45.5 305t-126.5 71q-47 0 -86 -24.5t-55 -79.5t-16 -152v-392z" />
<glyph unicode="q" horiz-adv-x="1146" d="M69 435q0 297 142 440t377 143q44 0 83.5 -4t93.5 -17l38 77q101 0 139.5 -13t48.5 -41.5t10 -84.5l-5 -948q0 -143 5 -290h98q18 -33 18 -74q0 -35 -14.5 -49t-57.5 -14h-489q-17 42 -17 79q0 31 14 44.5t45 13.5h111q6 147 6 353q-58 -31 -133.5 -50.5t-155.5 -19.5 q-182 0 -269.5 107.5t-87.5 347.5zM386 538q0 -223 39 -304t125 -81q54 0 94 18.5t55.5 66t15.5 130.5v434q-33 18 -72 30.5t-82 12.5q-87 0 -131 -65t-44 -242z" />
<glyph unicode="r" horiz-adv-x="931" d="M69 79q0 31 14 44.5t45 13.5h73q5 147 5 341q0 280 -26.5 331t-92.5 51q-18 40 -18 80q0 36 26.5 47t330.5 20q2 -21 2 -50t-2 -66q126 74 228 100t180 26q36 0 48 -8.5t12 -39.5q0 -55 -16.5 -114.5t-41 -76.5t-77.5 -25t-61.5 -4t-56.5 67q-74 0 -113.5 -53.5 t-39.5 -275.5q0 -203 5 -350h157q18 -33 18 -74q0 -35 -14.5 -49t-56.5 -14h-510q-18 42 -18 79z" />
<glyph unicode="s" horiz-adv-x="987" d="M87 116q0 62 49 122q199 -85 353 -85q63 0 98 21t35 70q0 57 -61.5 91t-197.5 86q-146 56 -208.5 120.5t-62.5 165.5q0 142 124.5 226.5t345.5 84.5q151 0 233 -28.5t82 -95.5q0 -71 -57 -144q-216 95 -331 95q-61 0 -90.5 -23t-29.5 -66q0 -45 39.5 -78t182.5 -84 q167 -57 237.5 -125t70.5 -179q0 -150 -122.5 -230t-331.5 -80q-193 0 -275 26.5t-83 109.5z" />
<glyph unicode="t" horiz-adv-x="854" d="M50 927q0 34 13.5 48t45.5 14h70l99 301q51 -15 94.5 -39t66 -55t22.5 -153v-54h338q17 -40 17 -85q0 -38 -14 -51t-54 -13h-287v-395q0 -172 29 -234q28 -63 96 -65h7q66 0 158 48q29 -39 29 -89q0 -68 -71.5 -91.5t-222.5 -23.5q-165 0 -235.5 66t-70.5 256v174 q0 165 -10 354h-102q-18 43 -18 87z" />
<glyph unicode="u" horiz-adv-x="1185" d="M18 925q0 46 56 64t177 18q87 0 123 -10.5t44.5 -31.5t8.5 -141v-356q0 -195 37 -255t105 -60q51 0 94 22.5t54 59t11 131.5q0 265 -1 337t-11 106t-25.5 42.5t-53.5 8.5q-18 28 -18 65q0 46 56.5 64t158.5 18q87 0 123 -10.5t44.5 -36t8.5 -146.5v-372q0 -198 14 -246 q13 -43 63 -43h11q14 -33 14 -63q0 -49 -73 -74.5t-134 -25.5q-47 0 -66 14.5t-59 72.5q-93 -47 -178.5 -72t-182.5 -25q-128 0 -201 67.5t-73 274.5q0 309 -3.5 381.5t-15.5 106t-32 42t-58 8.5q-18 28 -18 65z" />
<glyph unicode="v" horiz-adv-x="1153" d="M15 944q0 37 36.5 50t229.5 13q74 0 104.5 -12t44 -43.5t32.5 -147.5t83.5 -358t78 -242t89.5 274t88 363h-54q-17 35 -17 74t15 56.5t50 17.5h303q18 -34 18 -72q0 -44 -17 -60t-60 -16h-6q-34 -75 -153 -418.5t-160.5 -393t-144.5 -49.5q-162 0 -174 16t-107 327.5 t-119.5 382t-39 104t-34.5 42t-68 8.5q-18 46 -18 84z" />
<glyph unicode="w" horiz-adv-x="1761" d="M26 939q0 46 36 57t203 11q80 0 115 -12t48.5 -43.5t32 -147.5t58.5 -358t53 -242t84.5 319.5t101.5 474.5q109 4 177 4q87 0 107 -6q36 -12 49 -43.5t31 -142.5t68.5 -358.5t64 -247.5t76.5 274.5t72 362.5h-63q-18 35 -18 74t15.5 56.5t50.5 17.5h303q17 -34 17 -72 q0 -44 -17 -60t-59 -16h-6q-27 -75 -137.5 -419t-154 -393t-128.5 -49q-148 0 -159.5 16t-84.5 371.5t-86.5 355.5t-84.5 -322.5t-114.5 -371.5t-119.5 -49q-194 0 -206 16t-78 322.5t-88 381t-38 109t-35.5 43t-67.5 8.5q-18 37 -18 79z" />
<glyph unicode="x" horiz-adv-x="1164" d="M43 79q0 31 14 44.5t45 13.5h34q50 69 257 369q-89 136 -134.5 203t-72 100.5t-51 42t-63.5 8.5q-17 28 -17 74q0 47 51 60t218 13q33 0 78.5 -12t65.5 -46.5t60 -122.5t119 -219q87 139 129 234h-46q-18 35 -18 74t15.5 56.5t50.5 17.5h302q18 -34 18 -72q0 -44 -17 -60 t-60 -16h-6q-121 -147 -255 -351q205 -309 232.5 -331t85.5 -22q15 -23 15 -64q0 -47 -37 -60t-116 -13q-135 0 -173.5 5.5t-59.5 33.5t-202 350q-107 -173 -129 -252h66q17 -33 17 -74q0 -35 -14.5 -49t-56.5 -14h-328q-17 42 -17 79z" />
<glyph unicode="y" horiz-adv-x="1134" d="M-1 -341q0 64 43 117q189 -40 286 -40q13 0 24 1q97 6 175 253q-60 -2 -99 -2q-63 0 -70 4q-13 7 -90.5 323.5t-97 388.5t-31.5 105.5t-33 42t-69 8.5q-17 46 -17 84q0 46 41 54.5t181 8.5q94 0 129.5 -12t49 -43.5t41.5 -192t72.5 -380t57.5 -219.5t85.5 296.5 t83.5 384.5h-54q-18 35 -18 74t15.5 56.5t50.5 17.5h340q18 -34 18 -72q0 -44 -17 -60t-59 -16h-18q-31 -81 -173.5 -568t-219.5 -575.5t-181.5 -113t-231.5 -24.5q-130 0 -172 22.5t-42 76.5z" />
<glyph unicode="z" horiz-adv-x="1004" d="M53 910q0 40 23 59.5t88 19.5h636q47 0 70.5 -13.5t23.5 -51.5q0 -46 -41 -113t-136.5 -217t-169 -271.5t-86.5 -175.5h148q86 0 297 74q30 -64 30 -126q0 -54 -27 -74.5t-119 -20.5h-661q-72 0 -72 67q0 35 34.5 86t158.5 220t185.5 278.5t94.5 189.5h-195 q-70 0 -233 -75q-49 71 -49 144z" />
<glyph unicode="{" horiz-adv-x="997" d="M130 610.5q0 14.5 53.5 70.5t53.5 190v246q0 158 40 242t147 144.5t278 60.5q110 0 151.5 -23t41.5 -92q0 -79 -54 -130q-190 69 -243 49.5t-62 -82t1 -193.5t10 -281q0 -138 -110 -202q110 -63 110 -202q0 -149 -10 -280t-1 -193.5t62 -82t243 49.5q54 -51 54 -130 q0 -69 -41.5 -92t-188.5 -23q-173 0 -260.5 36.5t-127.5 120.5t-40 252v284q0 135 -53.5 190.5t-53.5 70z" />
<glyph unicode="|" horiz-adv-x="636" d="M230 -363v1955q54 17 97 17q54 0 66.5 -18t12.5 -49v-1966q-33 -17 -104 -17q-41 0 -56.5 17t-15.5 61z" />
<glyph unicode="}" horiz-adv-x="997" d="M101 -228q0 79 55 130q190 -69 243 -49.5t62 82t-1 193.5t-10 280q0 139 109 202q-109 64 -109 202q0 150 10 281t1 193.5t-62 82t-243 -49.5q-55 51 -55 130q0 69 42 92t189 23q173 0 260 -36.5t127.5 -120.5t40.5 -253v-283q0 -135 53 -190.5t53 -70t-53 -70.5 t-53 -190v-246q0 -158 -40.5 -242t-147 -144.5t-277.5 -60.5q-110 0 -152 23t-42 92z" />
<glyph unicode="~" d="M137 484q0 62 85 136.5t159 74.5q107 0 521 -184q55 93 124 184q122 -40 122 -122q0 -72 -90 -146t-154 -74q-107 0 -521 184q-55 -93 -124 -185q-122 40 -122 132z" />
<glyph unicode="&#xa1;" horiz-adv-x="739" d="M173 876q0 69 44.5 105.5t122.5 36.5q87 0 127.5 -36.5t40.5 -105.5t-45 -105t-123 -36q-86 0 -126.5 36t-40.5 105zM193.5 -297.5q-7.5 69.5 51.5 900.5h182q56 -763 78 -951q-69 -19 -190 -19q-114 0 -121.5 69.5z" />
<glyph unicode="&#xa2;" d="M236 614q0 280 143 432q109 116 302 144v184q54 17 97 17q54 0 66.5 -18t12.5 -49v-127q122 -3 169.5 -33.5t47.5 -84.5q0 -64 -49 -136q-111 55 -196 73v-679q91 14 215 73q42 -58 42 -122q0 -65 -106 -97q-57 -17 -123 -24v-179q-34 -17 -105 -17q-40 0 -55.5 17 t-15.5 61v112q-236 8 -335 101q-110 103 -110 352zM552 693q0 -183 48 -272q35 -62 109 -80v680q-70 -14 -108 -69q-49 -74 -49 -259z" />
<glyph unicode="&#xa3;" d="M91 84q0 27 15 39.5t43 12.5q62 0 98 82q26 57 81 401h-162q-17 44 -17 87q0 54 18 66.5t48 12.5h139q13 84 26 179q30 265 145 363t377 98q167 0 233.5 -27.5t66.5 -90.5t-53 -131q-201 86 -315 86q-81 0 -108.5 -52t-72.5 -425h325q17 -33 17 -95q0 -40 -17 -55.5 t-61 -15.5h-283q-30 -237 -45 -306q-19 -92 -66 -146h104q335 0 533 79q44 -66 44 -143q0 -55 -41 -79t-166 -24l-889 -1q-17 44 -17 85z" />
<glyph unicode="&#xa5;" d="M3 1294q0 40 17 55.5t60 15.5h463q18 -35 18 -68q0 -44 -18 -56.5t-49 -12.5h-21q31 -117 123 -362.5t106 -245.5t82.5 236t95.5 372h-66q-18 33 -18 66q0 40 17.5 55.5t60.5 15.5h393q17 -35 17 -68q0 -44 -18 -56.5t-48 -12.5h-36q-100 -197 -343 -747h265 q17 -34 17 -95q0 -40 -17 -55.5t-61 -15.5h-226q2 -98 6 -178h142q17 -33 17 -66q0 -40 -17 -55.5t-60 -15.5h-537q-17 35 -17 68q0 44 18 56.5t48 12.5h84q5 84 6 178h-264q-17 44 -17 87q0 54 17.5 66.5t48.5 12.5h179q-266 564 -367 747h-84q-17 33 -17 66z" />
<glyph unicode="&#xa6;" horiz-adv-x="636" d="M230 -363v745q54 17 97 17q54 0 66.5 -18t12.5 -48v-757q-33 -17 -104 -17q-40 0 -56 17t-16 61zM230 846v746q54 17 97 17q54 0 66.5 -18t12.5 -49v-756q-33 -17 -104 -17q-41 0 -56.5 17t-15.5 60z" />
<glyph unicode="&#xa7;" horiz-adv-x="1259" d="M90 818q0 171 129 309t379 193q138 65 278 65q73 0 114.5 -26t41.5 -100q0 -86 -61 -169q-160 103 -245 103q-51 0 -81 -26.5t-30 -81.5q0 -44 31.5 -84t163.5 -118q209 -119 281 -206t77 -204q0 -173 -128.5 -306.5t-344.5 -191.5q-203 -95 -381 -95q-86 0 -122 26.5 t-36 100.5q0 76 50 158q194 -93 302 -93q71 0 102.5 30t31.5 79q0 52 -48.5 99t-245.5 165q-151 94 -204.5 181.5t-53.5 191.5zM293 883q0 -87 42.5 -155.5t143.5 -131.5q239 -144 307 -207.5t68 -151.5q0 -79 -75 -165q89 69 128 147t39 155q-5 113 -61.5 185.5 t-187.5 153.5q-228 135 -270 189.5t-42 124.5q0 93 91 183q-74 -42 -128.5 -132.5t-54.5 -194.5z" />
<glyph unicode="&#xa8;" horiz-adv-x="827" d="M11 1269q0 66 50.5 108.5t126.5 42.5q77 0 117 -36.5t40 -95.5q0 -65 -48 -108t-136 -43q-70 0 -110 34.5t-40 97.5zM482 1269q0 66 50.5 108.5t126.5 42.5q77 0 117 -36.5t40 -95.5q0 -65 -47.5 -108t-135.5 -43q-71 0 -111 34.5t-40 97.5z" />
<glyph unicode="&#xa9;" horiz-adv-x="1836" d="M113 624q-1 395 229 630.5t614 235.5q380 0 575.5 -196.5t195.5 -552.5q1 -396 -229 -631.5t-615 -235.5q-380 0 -575 196.5t-195 553.5zM294 649q0 -323 173.5 -476.5t474.5 -153.5q274 0 438.5 175t164.5 521q0 323 -173.5 476.5t-474.5 153.5q-273 0 -438 -175 t-165 -521zM490 631q0 287 127.5 421.5t360.5 134.5q155 0 213.5 -22t58.5 -85q0 -51 -45 -115q-136 61 -244 61q-88 0 -139 -67.5t-51 -252.5q0 -205 54.5 -286t161.5 -81t225 68q48 -55 48 -106q0 -71 -100.5 -97t-237.5 -26q-220 0 -326 96t-106 357z" />
<glyph unicode="&#xaa;" horiz-adv-x="958" d="M100 940q0 108 74.5 161t280.5 53h69q-6 71 -32.5 107.5t-79.5 36.5q-40 0 -73 -8q-23 -42 -27 -45t-54 -12t-67 6t-34 65.5t-17 76.5q0 15 13 24t97 19.5t209 10.5q197 0 261.5 -38.5t64.5 -150.5v-128q0 -125 17 -170.5t62 -35.5q14 -26 14 -50q0 -41 -49.5 -62.5 t-141.5 -21.5q-36 0 -56.5 9t-60.5 60q-68 -32 -134.5 -51t-138.5 -19q-106 0 -151.5 42.5t-45.5 120.5zM366 975q0 -37 17 -56.5t47 -19.5q43 0 65 14t30 36t8 65v27q-45 10 -102 10q-32 0 -48.5 -17.5t-16.5 -58.5z" />
<glyph unicode="&#xab;" horiz-adv-x="1536" d="M123 584q318 257 457 377q54 -36 106 -113q53 -79 -10 -123t-334 -183q217 -123 380 -206q-12 -64 -65 -141q-53 -79 -115 -46.5t-220.5 167.5t-178.5 159.5t-20 108.5zM739 584q318 257 457 377q54 -36 106 -113q54 -79 -9.5 -123t-333.5 -183q217 -123 379 -206 q-12 -64 -64 -141q-54 -79 -116 -46.5t-220.5 167.5t-178.5 159.5t-20 108.5z" />
<glyph unicode="&#xac;" d="M208 519q0 53 18 66t48 13h670q53 0 66 -18t13 -49v-435q-34 -18 -105 -18q-40 0 -56 17.5t-16 60.5v275h-621q-17 44 -17 88z" />
<glyph unicode="&#xad;" horiz-adv-x="768" d="M81 547q0 54 18 71.5t49 17.5h522q18 -44 18 -115q0 -49 -17.5 -69.5t-60.5 -20.5h-511q-18 54 -18 116z" />
<glyph unicode="&#xae;" horiz-adv-x="1464" d="M92 733q-1 313 169.5 502.5t501.5 189.5q300 0 454.5 -155.5t154.5 -434.5q1 -314 -170 -503.5t-502 -189.5q-301 0 -454.5 155.5t-153.5 435.5zM228 754q0 -262 142 -385.5t382 -123.5q246 0 365 143t119 426q0 261 -142 384.5t-383 123.5q-246 0 -364.5 -143 t-118.5 -425zM422 479q0 16 8.5 23t25.5 7h25q3 71 3 351q0 155 -3 227h-48q-10 26 -10 58q0 16 8.5 23t24.5 7h260q158 0 234 -49t76 -148q0 -139 -177 -208q51 -19 83.5 -61t57 -108t37.5 -84t48 -17q16 -52 -3 -71t-77 -19q-81 0 -115 19t-56.5 111t-45 134t-64.5 42 q-21 0 -44 -7q1 -139 3 -200h44q10 -21 10 -52q0 -20 -7.5 -28t-23.5 -8h-263q-11 25 -11 58zM670 818h37q54 0 87 27t33 88t-29 92.5t-74 31.5q-28 0 -51 -6q-3 -37 -3 -182v-51z" />
<glyph unicode="&#xaf;" horiz-adv-x="591" d="M11 1278q0 54 18 66.5t48 12.5h485q18 -34 18 -95q0 -40 -17.5 -56t-60.5 -16h-474q-17 45 -17 88z" />
<glyph unicode="&#xb0;" horiz-adv-x="777" d="M74 1045q-1 154 83 247t247 93q147 0 223 -76.5t76 -213.5q1 -154 -83.5 -247t-246.5 -93q-148 0 -223.5 76t-75.5 214zM237 1060q0 -79 42.5 -115.5t115.5 -36.5q74 0 110 43t36 128q0 79 -43.5 116.5t-114.5 37.5q-75 0 -110.5 -43t-35.5 -130z" />
<glyph unicode="&#xb1;" d="M137 106q0 54 18 76t49 22h927q18 -52 18 -114q0 -40 -17.5 -65t-60.5 -25h-916q-18 63 -18 106zM137 790q0 54 18 76t49 22h327v406q83 17 126 17q54 0 76 -17.5t22 -48.5v-357h376q18 -52 18 -114q0 -40 -17.5 -65t-60.5 -25h-316v-406q-63 -17 -134 -17q-40 0 -65 17 t-25 61v345h-376q-18 63 -18 106z" />
<glyph unicode="&#xb2;" horiz-adv-x="1190" d="M168 647q0 84 65 145.5t236 153t171 168.5q0 48 -32.5 71t-123.5 23q-65 0 -97 -7q-21 -41 -24.5 -43.5t-64 -10.5t-78 6t-33.5 77.5t-16 97.5q0 21 12 28t90.5 18t239.5 11q266 0 364 -51t98 -161q0 -78 -44 -145t-215 -165.5t-189 -141.5h37q238 0 406 51 q26 -60 26 -125q0 -62 -25.5 -83t-87.5 -21h-693q-22 42 -22 104z" />
<glyph unicode="&#xb3;" horiz-adv-x="1190" d="M192 638q0 63 26 109q151 -39 275 -39q94 0 131 22.5t37 78.5q0 50 -35.5 74t-114.5 24h-65q-17 0 -25.5 10t-8.5 31q0 35 17 77h45q98 0 132 21.5t34 69.5q0 51 -30.5 71.5t-99.5 20.5q-54 0 -90 -8q-20 -40 -24.5 -42.5t-64 -10.5t-77 6t-32 86.5t-14.5 95.5 q0 15 12.5 23.5t109.5 17.5t256 9q195 0 292.5 -42t97.5 -148q0 -150 -227 -217q249 -42 249 -186q0 -125 -145 -193.5t-413 -68.5q-187 0 -217.5 25t-30.5 83z" />
<glyph unicode="&#xb4;" horiz-adv-x="402" d="M11 1192l214 312q166 -61 166 -142q0 -104 -276 -266z" />
<glyph unicode="&#xb5;" horiz-adv-x="1185" d="M107 -430q39 356 39 660q0 213 -14.5 391t-14.5 265q0 121 139 121q131 0 191 -19q-39 -400 -39 -588q0 -161 40.5 -204.5t112.5 -42.5q60 0 103 22.5t54 59t11 131.5q0 265 -1 337t-6 106t-19.5 42.5t-34.5 8.5q-18 28 -18 65q0 46 46 64t139 18q87 0 123 -10.5 t44.5 -36t8.5 -146.5v-462q0 -140 14.5 -178t82.5 -37q14 -38 14 -64q0 -41 -28 -62t-101 -21q-106 0 -122.5 6t-90.5 81q-93 -48 -159 -72.5t-128 -24.5q-45 0 -94 14q29 -185 29 -313q0 -121 -140 -121q-102 0 -181 10z" />
<glyph unicode="&#xb6;" horiz-adv-x="1577" d="M90 618q0 259 125 374t387 115h371q305 0 480 49q34 -53 34 -115q0 -42 -18 -61.5t-73 -19.5h-166v-387q0 -308 5 -573h-197q5 265 5 960h-184v-1197q0 -136 -39.5 -179.5t-124.5 -43.5q-105 0 -174 58q85 183 85 628v107q-46 -25 -106 -40.5t-124 -15.5 q-147 0 -216.5 81t-69.5 260z" />
<glyph unicode="&#xb7;" horiz-adv-x="392" d="M11 633q0 66 50.5 108.5t135.5 42.5q105 0 145 -36t40 -95q0 -66 -48 -109t-154 -43q-89 0 -129 34.5t-40 97.5z" />
<glyph unicode="&#xb8;" horiz-adv-x="262" d="M-19 -376q0 45 33 81q71 -33 153 -33q43 0 62 12.5t19 43.5q0 39 -22 59t-69 20q-29 0 -46 -1.5t-32 16.5t-13 30t29 148h162l-48 -102q168 0 225.5 -36t57.5 -107q0 -87 -91.5 -140t-247.5 -53q-99 0 -135.5 12.5t-36.5 49.5z" />
<glyph unicode="&#xb9;" horiz-adv-x="1190" d="M221 1258q0 67 145.5 96.5t226.5 29.5q68 0 100 -15t45.5 -53t13.5 -116q0 -214 7 -499h196q22 -34 22 -76q0 -46 -19 -64t-73 -18h-636q-22 45 -22 83q0 39 18.5 57t57.5 18h144q6 156 6 232q0 92 -4.5 135t-20.5 67.5t-50.5 36t-142.5 11.5q-14 42 -14 75z" />
<glyph unicode="&#xba;" horiz-adv-x="903" d="M100 1066q0 176 92.5 272.5t292.5 96.5q173 0 245 -74.5t72 -214.5q0 -176 -92 -272.5t-292 -96.5q-174 0 -246 74t-72 215zM366 1126q0 -130 23 -171t68 -41q39 0 58.5 26.5t19.5 145.5q0 129 -22.5 170.5t-68.5 41.5q-38 0 -58 -26.5t-20 -145.5z" />
<glyph unicode="&#xbb;" horiz-adv-x="1536" d="M199 336q163 83 380 206q-271 139 -334.5 183t-9.5 123q52 77 106 113q139 -120 457 -377q0 -84 -20 -108.5t-178.5 -159.5t-220.5 -167.5t-116 46.5q-52 77 -64 141zM815 336q163 83 380 206q-271 139 -334 183t-10 123q52 77 106 113q139 -120 457 -377 q0 -84 -20 -108.5t-178.5 -159.5t-220.5 -167.5t-115 46.5q-52 77 -65 141z" />
<glyph unicode="&#xbc;" horiz-adv-x="2597" d="M221 1258q0 67 145.5 96.5t226.5 29.5q68 0 100 -15t45.5 -53t13.5 -116q0 -214 7 -499h196q22 -34 22 -76q0 -46 -19 -64t-73 -18h-636q-22 45 -22 83q0 39 18.5 57t57.5 18h144q6 156 6 232q0 92 -4.5 135t-20.5 67.5t-50.5 36t-142.5 11.5q-14 42 -14 75zM846 -102 q-7 22 10 62l738 1581q56 -9 95 -27q49 -22 53 -44t-9 -49l-686 -1471l-55 -119q-39 -3 -103 28q-36 17 -43 39zM1563 239q0 36 14.5 87t159.5 503q177 0 219.5 -6t42.5 -44q0 -40 -47 -237.5t-47 -230.5h192v242h205q60 0 60 -78v-164h77q11 -49 11 -92q0 -41 -7.5 -57 t-32.5 -16h-48v-146h-218q-59 0 -59 79v67h-492q-30 36 -30 93z" />
<glyph unicode="&#xbd;" horiz-adv-x="2597" d="M221 1258q0 67 145.5 96.5t226.5 29.5q68 0 100 -15t45.5 -53t13.5 -116q0 -214 7 -499h196q22 -34 22 -76q0 -46 -19 -64t-73 -18h-636q-22 45 -22 83q0 39 18.5 57t57.5 18h144q6 156 6 232q0 92 -4.5 135t-20.5 67.5t-50.5 36t-142.5 11.5q-14 42 -14 75zM827 -102 q-7 22 11 62l737 1581q56 -9 95 -27q49 -22 53 -44t-9 -49l-686 -1471l-55 -119q-39 -3 -103 28q-36 17 -43 39zM1574 104q0 84 65 146t236 153t171 169q0 47 -32.5 70t-123.5 23q-65 0 -97 -7q-21 -40 -24.5 -42.5t-64 -11t-77.5 6t-33.5 78t-16.5 97.5q0 21 12 27.5 t90.5 17.5t239.5 11q266 0 364 -51t98 -161q0 -77 -44 -144t-214.5 -165.5t-189.5 -142.5h37q238 0 406 51q27 -59 27 -125q0 -62 -26 -83t-88 -21h-692q-23 42 -23 104z" />
<glyph unicode="&#xbe;" horiz-adv-x="2597" d="M192 638q0 63 26 109q151 -39 275 -39q94 0 131 22.5t37 78.5q0 50 -35.5 74t-114.5 24h-65q-17 0 -25.5 10t-8.5 31q0 35 17 77h45q98 0 132 21.5t34 69.5q0 51 -30.5 71.5t-99.5 20.5q-54 0 -90 -8q-20 -40 -24.5 -42.5t-64 -10.5t-77 6t-32 86.5t-14.5 95.5 q0 15 12.5 23.5t109.5 17.5t256 9q195 0 292.5 -42t97.5 -148q0 -150 -227 -217q249 -42 249 -186q0 -125 -145 -193.5t-413 -68.5q-187 0 -217.5 25t-30.5 83zM850 -102q-7 22 10 62l738 1581q56 -9 95 -27q49 -22 53 -44t-9 -49l-686 -1471l-55 -119q-39 -3 -103 28 q-36 17 -43 39zM1563 239q0 36 14.5 87t159.5 503q177 0 219.5 -6t42.5 -44q0 -40 -47 -237.5t-47 -230.5h192v242h205q60 0 60 -78v-164h77q11 -49 11 -92q0 -41 -7.5 -57t-32.5 -16h-48v-146h-218q-59 0 -59 79v67h-492q-30 36 -30 93z" />
<glyph unicode="&#xbf;" horiz-adv-x="1168" d="M103 -88q0 165 172.5 305t223.5 203.5t51 150.5v30q105 22 218 22q91 0 91 -87q0 -54 -42 -119t-206.5 -193.5t-164.5 -246.5q0 -96 53 -142t141 -46q75 0 128 12q35 66 41.5 70.5t69 18.5t88.5 -9.5t52.5 -83t26.5 -99.5q0 -25 -20.5 -39t-151.5 -30t-319 -16 q-195 0 -323.5 67t-128.5 232zM463 876q0 69 49.5 105.5t137.5 36.5q97 0 142 -36.5t45 -105.5t-49.5 -105t-137.5 -36q-97 0 -142 36t-45 105z" />
<glyph unicode="&#xc0;" horiz-adv-x="1469" d="M11 85q0 27 14.5 39.5t43.5 12.5h54q71 193 214.5 626.5t190.5 527t179 93.5q167 0 189 -11t197 -525.5t253 -710.5h94q17 -36 17 -74q0 -35 -13 -49t-42 -14h-511q-17 44 -17 85q0 27 15 39.5t44 12.5h44q-15 72 -77 287h-424q-56 -210 -70 -287h95q17 -36 17 -74 q0 -35 -13 -49t-41 -14h-436q-17 44 -17 85zM466 1631q0 79 116 160l329 -238l-62 -99q-383 60 -383 177zM520 591h331q-153 504 -171.5 504t-159.5 -504z" />
<glyph unicode="&#xc1;" horiz-adv-x="1469" d="M11 85q0 27 14.5 39.5t43.5 12.5h54q71 193 214.5 626.5t190.5 527t179 93.5q167 0 189 -11t197 -525.5t253 -710.5h94q17 -36 17 -74q0 -35 -13 -49t-42 -14h-511q-17 44 -17 85q0 27 15 39.5t44 12.5h44q-15 72 -77 287h-424q-56 -210 -70 -287h95q17 -36 17 -74 q0 -35 -13 -49t-41 -14h-436q-17 44 -17 85zM520 591h331q-153 504 -171.5 504t-159.5 -504zM537 1553l328 238q116 -80 116 -160q0 -117 -383 -177z" />
<glyph unicode="&#xc2;" horiz-adv-x="1469" d="M11 85q0 27 14.5 39.5t43.5 12.5h54q71 193 214.5 626.5t190.5 527t179 93.5q167 0 189 -11t197 -525.5t253 -710.5h94q17 -36 17 -74q0 -35 -13 -49t-42 -14h-511q-17 44 -17 85q0 27 15 39.5t44 12.5h44q-15 72 -77 287h-424q-56 -210 -70 -287h95q17 -36 17 -74 q0 -35 -13 -49t-41 -14h-436q-17 44 -17 85zM440 1546q142 156 287 279q146 -124 287 -279l-59 -92q-160 107 -229 134q-67 -27 -228 -134zM520 591h331q-153 504 -171.5 504t-159.5 -504z" />
<glyph unicode="&#xc3;" horiz-adv-x="1469" d="M11 85q0 27 14.5 39.5t43.5 12.5h54q71 193 214.5 626.5t190.5 527t179 93.5q167 0 189 -11t197 -525.5t253 -710.5h94q17 -36 17 -74q0 -35 -13 -49t-42 -14h-511q-17 44 -17 85q0 27 15 39.5t44 12.5h44q-15 72 -77 287h-424q-56 -210 -70 -287h95q17 -36 17 -74 q0 -35 -13 -49t-41 -14h-436q-17 44 -17 85zM401 1586q0 63 85 132.5t169 69.5q69 0 229 -165q66 93 116 174q123 -40 123 -122q0 -72 -90 -141.5t-165 -69.5q-69 0 -229 165q-66 -94 -115 -175q-123 40 -123 132zM520 591h331q-153 504 -171.5 504t-159.5 -504z" />
<glyph unicode="&#xc4;" horiz-adv-x="1469" d="M11 85q0 27 14.5 39.5t43.5 12.5h54q71 193 214.5 626.5t190.5 527t179 93.5q167 0 189 -11t197 -525.5t253 -710.5h94q17 -36 17 -74q0 -35 -13 -49t-42 -14h-511q-17 44 -17 85q0 27 15 39.5t44 12.5h44q-15 72 -77 287h-424q-56 -210 -70 -287h95q17 -36 17 -74 q0 -35 -13 -49t-41 -14h-436q-17 44 -17 85zM315 1589q0 67 46.5 109.5t130.5 42.5q87 0 122.5 -36.5t35.5 -96.5q0 -66 -43.5 -109t-140.5 -43q-80 0 -115.5 34.5t-35.5 98.5zM520 591h331q-153 504 -171.5 504t-159.5 -504zM826 1589q0 67 46.5 109.5t131.5 42.5 q86 0 122 -36.5t36 -96.5q0 -66 -43.5 -109t-140.5 -43q-80 0 -116 34.5t-36 98.5z" />
<glyph unicode="&#xc5;" horiz-adv-x="1469" d="M11 85q0 27 14.5 39.5t43.5 12.5h54q71 193 214.5 626.5t190.5 527t179 93.5q167 0 189 -11t197 -525.5t253 -710.5h94q17 -36 17 -74q0 -35 -13 -49t-42 -14h-511q-17 44 -17 85q0 27 15 39.5t44 12.5h44q-15 72 -77 287h-424q-56 -210 -70 -287h95q17 -36 17 -74 q0 -35 -13 -49t-41 -14h-436q-17 44 -17 85zM418 1655q0 103 82 178t260 75q161 0 230 -53.5t69 -157.5q0 -102 -82 -177t-250 -75q-171 0 -240 54t-69 156zM520 591h331q-153 504 -171.5 504t-159.5 -504zM584 1676q0 -50 38 -77.5t116 -27.5q86 0 120.5 27.5t34.5 77.5 q0 51 -38 78.5t-117 27.5q-85 0 -119.5 -27.5t-34.5 -78.5z" />
<glyph unicode="&#xc6;" horiz-adv-x="1920" d="M1 85q0 27 14.5 39.5t43.5 12.5h64q110 196 387.5 688.5t309.5 516t125 23.5h769q64 0 91.5 -19.5t27.5 -80.5q0 -74 -49 -152q-210 85 -539 85h-8q-5 -98 -5 -399h463q18 -53 18 -110q0 -34 -12.5 -45.5t-45.5 -11.5h-423q1 -385 5 -465h43q338 0 535 79q44 -66 44 -143 q0 -55 -41 -79t-166 -24l-850 -1q-17 44 -17 85q0 27 15 39.5t44 12.5h73q3 83 4 288h-379q-108 -218 -127 -287h85q18 -36 18 -74q0 -35 -13 -49t-42 -14h-445q-17 44 -17 85zM627 591h295v97q0 280 -5 446q-176 -322 -290 -543z" />
<glyph unicode="&#xc7;" horiz-adv-x="1271" d="M112 610q0 399 177 587t502 188q213 0 295 -30.5t82 -111.5q0 -63 -64 -136q-189 86 -362 86q-145 0 -215.5 -104t-70.5 -374q0 -319 76.5 -431t268.5 -112q170 0 313 92q67 -74 67 -145q0 -68 -141 -103q-122 -31 -280 -35l-37 -83q179 0 236.5 -36t57.5 -107 q0 -88 -91.5 -150t-257.5 -62q-99 0 -136 12t-37 60q0 54 33 90q71 -33 153 -33q43 0 62 12.5t19 43.5q0 39 -22 59t-69 20q-29 0 -55.5 -1.5t-41.5 16.5t-13 30t18 135q-199 18 -319 126q-148 133 -148 497z" />
<glyph unicode="&#xc8;" horiz-adv-x="1267" d="M91 84q0 27 15 39.5t44 12.5h73q6 129 6 671q0 293 -6 421h-114q-18 44 -18 84q0 28 15 40.5t44 12.5h910q64 0 91.5 -19.5t27.5 -80.5q0 -74 -49 -152q-210 85 -538 85h-48q-6 -98 -6 -399h504q17 -53 17 -110q0 -34 -12 -45.5t-46 -11.5h-463q1 -385 6 -465h83 q337 0 534 79q44 -66 44 -143q0 -55 -41 -79t-166 -24l-889 -1q-18 44 -18 85zM461 1631q0 79 116 160l328 -238l-61 -99q-383 60 -383 177z" />
<glyph unicode="&#xc9;" horiz-adv-x="1267" d="M91 84q0 27 15 39.5t44 12.5h73q6 129 6 671q0 293 -6 421h-114q-18 44 -18 84q0 28 15 40.5t44 12.5h910q64 0 91.5 -19.5t27.5 -80.5q0 -74 -49 -152q-210 85 -538 85h-48q-6 -98 -6 -399h504q17 -53 17 -110q0 -34 -12 -45.5t-46 -11.5h-463q1 -385 6 -465h83 q337 0 534 79q44 -66 44 -143q0 -55 -41 -79t-166 -24l-889 -1q-18 44 -18 85zM441 1553l329 238q116 -80 116 -160q0 -117 -383 -177z" />
<glyph unicode="&#xca;" horiz-adv-x="1267" d="M91 84q0 27 15 39.5t44 12.5h73q6 129 6 671q0 293 -6 421h-114q-18 44 -18 84q0 28 15 40.5t44 12.5h910q64 0 91.5 -19.5t27.5 -80.5q0 -74 -49 -152q-210 85 -538 85h-48q-6 -98 -6 -399h504q17 -53 17 -110q0 -34 -12 -45.5t-46 -11.5h-463q1 -385 6 -465h83 q337 0 534 79q44 -66 44 -143q0 -55 -41 -79t-166 -24l-889 -1q-18 44 -18 85zM398 1546q142 156 287 279q146 -124 287 -279l-59 -92q-160 107 -229 134q-67 -27 -228 -134z" />
<glyph unicode="&#xcb;" horiz-adv-x="1267" d="M91 84q0 27 15 39.5t44 12.5h73q6 129 6 671q0 293 -6 421h-114q-18 44 -18 84q0 28 15 40.5t44 12.5h910q64 0 91.5 -19.5t27.5 -80.5q0 -74 -49 -152q-210 85 -538 85h-48q-6 -98 -6 -399h504q17 -53 17 -110q0 -34 -12 -45.5t-46 -11.5h-463q1 -385 6 -465h83 q337 0 534 79q44 -66 44 -143q0 -55 -41 -79t-166 -24l-889 -1q-18 44 -18 85zM259 1589q0 67 46.5 109.5t131.5 42.5q86 0 122 -36.5t36 -96.5q0 -66 -43.5 -109t-141.5 -43q-79 0 -115 34.5t-36 98.5zM771 1589q0 67 46 109.5t131 42.5q87 0 122.5 -36.5t35.5 -96.5 q0 -66 -43.5 -109t-140.5 -43q-80 0 -115.5 34.5t-35.5 98.5z" />
<glyph unicode="&#xcc;" horiz-adv-x="752" d="M92 85q0 27 14.5 39.5t43.5 12.5h93q6 128 6 670q-1 293 -7 421h-133q-17 44 -17 84q0 28 14.5 40.5t43.5 12.5h547q17 -37 17 -74q0 -36 -13 -49.5t-41 -13.5h-97q-6 -128 -5 -422q0 -541 6 -669h133q17 -36 17 -74q0 -35 -13 -49t-41 -14h-551q-17 44 -17 85zM146 1631 q0 79 116 160l328 -238l-61 -99q-383 60 -383 177z" />
<glyph unicode="&#xcd;" horiz-adv-x="805" d="M91 85q0 27 15 39.5t44 12.5h93q5 128 5 670q-1 293 -6 421h-133q-18 44 -18 84q0 28 15 40.5t44 12.5h547q17 -37 17 -74q0 -36 -13 -49.5t-42 -13.5h-97q-5 -128 -4 -422q0 -541 5 -669h134q17 -36 17 -74q0 -35 -13 -49t-42 -14h-550q-18 44 -18 85zM196 1553l329 238 q116 -80 116 -160q0 -117 -383 -177z" />
<glyph unicode="&#xce;" horiz-adv-x="745" d="M91 85q0 27 14.5 39.5t43.5 12.5h93q6 128 6 670q-1 293 -7 421h-133q-17 44 -17 84q0 28 14.5 40.5t43.5 12.5h547q17 -37 17 -74q0 -36 -13 -49.5t-41 -13.5h-97q-6 -128 -5 -422q0 -541 6 -669h133q17 -36 17 -74q0 -35 -13 -49t-41 -14h-551q-17 44 -17 85zM109 1546 q142 156 288 279q145 -124 286 -279l-59 -92q-160 107 -228 134q-68 -27 -228 -134z" />
<glyph unicode="&#xcf;" horiz-adv-x="843" d="M-1 1589q0 67 46.5 109.5t131.5 42.5q86 0 121.5 -36.5t35.5 -96.5q0 -66 -43.5 -109t-140.5 -43q-80 0 -115.5 34.5t-35.5 98.5zM106 85q0 27 14.5 39.5t43.5 12.5h93q5 128 5 670q0 293 -6 421h-133q-17 44 -17 84q0 28 14.5 40.5t43.5 12.5h547q17 -37 17 -74 q0 -36 -13 -49.5t-42 -13.5h-96q-6 -128 -5 -422q0 -541 5 -669h134q17 -36 17 -74q0 -35 -13 -49t-42 -14h-550q-17 44 -17 85zM510 1589q1 67 47 109.5t131 42.5q87 0 122.5 -36.5t35.5 -96.5q0 -66 -43.5 -109t-140.5 -43q-80 0 -116 34.5t-36 98.5z" />
<glyph unicode="&#xd0;" horiz-adv-x="1489" d="M91 739q0 35 13 47.5t43 12.5h101q0 301 -5 429h-115q-17 44 -17 84q0 28 15 40.5t44 12.5h422q452 0 619.5 -143.5t167.5 -476.5q0 -369 -173.5 -557t-588.5 -188l-489 -1q-17 44 -17 85q0 27 15 39.5t44 12.5h73q4 107 5 496h-139q-18 54 -18 107zM558 514 q0 -237 28.5 -279.5t150.5 -42.5q145 0 221.5 95t76.5 382q0 283 -89.5 393.5t-258.5 110.5q-71 0 -125 -10q-3 -95 -4 -364h178q18 -44 18 -105q0 -40 -17 -51t-51 -11h-128v-118z" />
<glyph unicode="&#xd1;" horiz-adv-x="1592" d="M91 85q0 27 15 39.5t44 12.5h83q6 128 6 670q-1 293 -7 421h-103q-18 44 -18 84q0 28 15 40.5t44 12.5h429q134 -257 258 -476t254 -543v461q0 293 -6 421h-113q-17 44 -17 84q0 28 15 40.5t44 12.5h450q17 -37 17 -74q0 -36 -13 -49.5t-42 -13.5h-87q-4 -128 -4 -422 v-671q0 -95 -22 -120t-116 -25q-187 0 -212 14t-200 303t-323 646q0 -688 5 -816h104q17 -36 17 -74q0 -35 -13 -49t-41 -14h-445q-18 44 -18 85zM418 1586q0 63 85 132.5t170 69.5q68 0 229 -165q65 93 115 174q123 -40 123 -122q0 -72 -90 -141.5t-164 -69.5 q-69 0 -229 165q-66 -94 -116 -175q-123 40 -123 132z" />
<glyph unicode="&#xd2;" horiz-adv-x="1501" d="M112 619q0 390 181.5 578t495.5 188q296 0 449.5 -137.5t153.5 -501.5q0 -390 -181.5 -578t-504.5 -188q-288 0 -441 137.5t-153 501.5zM456 716q0 -321 81 -432.5t226 -111.5q152 0 218 108.5t66 368.5q0 330 -80.5 437t-226.5 107q-152 0 -218 -108.5t-66 -368.5z M518 1631q0 79 116 160l329 -238l-61 -99q-384 60 -384 177z" />
<glyph unicode="&#xd3;" horiz-adv-x="1501" d="M112 619q0 390 181.5 578t495.5 188q296 0 449.5 -137.5t153.5 -501.5q0 -390 -181.5 -578t-504.5 -188q-288 0 -441 137.5t-153 501.5zM456 716q0 -321 81 -432.5t226 -111.5q152 0 218 108.5t66 368.5q0 330 -80.5 437t-226.5 107q-152 0 -218 -108.5t-66 -368.5z M565 1553l329 238q116 -80 116 -160q0 -117 -383 -177z" />
<glyph unicode="&#xd4;" horiz-adv-x="1501" d="M112 619q0 390 181.5 578t495.5 188q296 0 449.5 -137.5t153.5 -501.5q0 -390 -181.5 -578t-504.5 -188q-288 0 -441 137.5t-153 501.5zM456 716q0 -321 81 -432.5t226 -111.5q152 0 218 108.5t66 368.5q0 330 -80.5 437t-226.5 107q-152 0 -218 -108.5t-66 -368.5z M490 1546q142 156 287 279q146 -124 287 -279l-59 -92q-160 107 -229 134q-67 -27 -228 -134z" />
<glyph unicode="&#xd5;" horiz-adv-x="1501" d="M112 619q0 390 181.5 578t495.5 188q296 0 449.5 -137.5t153.5 -501.5q0 -390 -181.5 -578t-504.5 -188q-288 0 -441 137.5t-153 501.5zM441 1586q0 63 85 132.5t169 69.5q69 0 229 -165q66 93 116 174q123 -40 123 -122q0 -72 -90 -141.5t-165 -69.5q-68 0 -229 165 q-65 -94 -115 -175q-123 40 -123 132zM456 716q0 -321 81 -432.5t226 -111.5q152 0 218 108.5t66 368.5q0 330 -80.5 437t-226.5 107q-152 0 -218 -108.5t-66 -368.5z" />
<glyph unicode="&#xd6;" horiz-adv-x="1501" d="M112 619q0 390 181.5 578t495.5 188q296 0 449.5 -137.5t153.5 -501.5q0 -390 -181.5 -578t-504.5 -188q-288 0 -441 137.5t-153 501.5zM346 1589q0 67 46.5 109.5t131.5 42.5q86 0 122 -36.5t36 -96.5q0 -66 -43.5 -109t-141.5 -43q-79 0 -115 34.5t-36 98.5zM456 716 q0 -321 81 -432.5t226 -111.5q152 0 218 108.5t66 368.5q0 330 -80.5 437t-226.5 107q-152 0 -218 -108.5t-66 -368.5zM858 1589q0 67 46 109.5t131 42.5q87 0 122.5 -36.5t35.5 -96.5q0 -66 -43.5 -109t-140.5 -43q-80 0 -115.5 34.5t-35.5 98.5z" />
<glyph unicode="&#xd7;" d="M219 960q46 70 76 101q38 38 66.5 41t50.5 -19l231 -232l266 266q57 -31 100 -74q35 -35 40.5 -65.5t-24.5 -60.5l-224 -224l266 -267q-31 -55 -81 -106q-29 -28 -58.5 -33.5t-60.5 25.5l-224 223l-266 -266q-64 39 -95 70q-44 44 -47 72.5t18 50.5l232 231z" />
<glyph unicode="&#xd8;" horiz-adv-x="1501" d="M112 619q0 390 181.5 578t495.5 188q38 0 74 -3l75 205q74 -9 177 -47q50 -19 56 -40t-4 -50l-46 -126q67 -30 117 -77q154 -137 154 -501q0 -390 -181.5 -578t-504.5 -188q-38 0 -73 3l-25 -69l-47 -125q-55 2 -185 49q-37 14 -46 35.5t5 61.5l40 108q-62 31 -110 74 q-153 138 -153 502zM456 716q0 -245 68 -404l305 865q-51 16 -89 16q-152 0 -218 -108.5t-66 -368.5zM667 190q55 -18 96 -18q152 0 218 108.5t66 368.5t-72 418z" />
<glyph unicode="&#xd9;" horiz-adv-x="1436" d="M81 1312q0 28 14.5 40.5t43.5 12.5h478q17 -37 17 -74q0 -36 -13 -49.5t-41 -13.5h-68q-5 -132 -5 -581q0 -292 59 -383.5t186 -91.5q134 0 188.5 81t54.5 323q0 520 -6 652h-114q-18 44 -18 84q0 28 15 40.5t44 12.5h460q17 -37 17 -74q0 -36 -13 -49.5t-41 -13.5h-77 q-5 -128 -4 -597q0 -379 -149.5 -515t-443.5 -136q-266 0 -367 98.5t-101 365.5q0 656 -5 784h-94q-17 44 -17 84zM488 1631q0 79 116 160l329 -238l-62 -99q-383 60 -383 177z" />
<glyph unicode="&#xda;" horiz-adv-x="1436" d="M81 1312q0 28 14.5 40.5t43.5 12.5h478q17 -37 17 -74q0 -36 -13 -49.5t-41 -13.5h-68q-5 -132 -5 -581q0 -292 59 -383.5t186 -91.5q134 0 188.5 81t54.5 323q0 520 -6 652h-114q-18 44 -18 84q0 28 15 40.5t44 12.5h460q17 -37 17 -74q0 -36 -13 -49.5t-41 -13.5h-77 q-5 -128 -4 -597q0 -379 -149.5 -515t-443.5 -136q-266 0 -367 98.5t-101 365.5q0 656 -5 784h-94q-17 44 -17 84zM557 1553l329 238q116 -80 116 -160q0 -117 -384 -177z" />
<glyph unicode="&#xdb;" horiz-adv-x="1436" d="M81 1312q0 28 14.5 40.5t43.5 12.5h478q17 -37 17 -74q0 -36 -13 -49.5t-41 -13.5h-68q-5 -132 -5 -581q0 -292 59 -383.5t186 -91.5q134 0 188.5 81t54.5 323q0 520 -6 652h-114q-18 44 -18 84q0 28 15 40.5t44 12.5h460q17 -37 17 -74q0 -36 -13 -49.5t-41 -13.5h-77 q-5 -128 -4 -597q0 -379 -149.5 -515t-443.5 -136q-266 0 -367 98.5t-101 365.5q0 656 -5 784h-94q-17 44 -17 84zM461 1546q142 156 288 279q145 -124 286 -279l-58 -92q-160 107 -229 134q-68 -27 -228 -134z" />
<glyph unicode="&#xdc;" horiz-adv-x="1436" d="M81 1312q0 28 14.5 40.5t43.5 12.5h478q17 -37 17 -74q0 -36 -13 -49.5t-41 -13.5h-68q-5 -132 -5 -581q0 -292 59 -383.5t186 -91.5q134 0 188.5 81t54.5 323q0 520 -6 652h-114q-18 44 -18 84q0 28 15 40.5t44 12.5h460q17 -37 17 -74q0 -36 -13 -49.5t-41 -13.5h-77 q-5 -128 -4 -597q0 -379 -149.5 -515t-443.5 -136q-266 0 -367 98.5t-101 365.5q0 656 -5 784h-94q-17 44 -17 84zM336 1589q0 67 46 109.5t131 42.5q87 0 122.5 -36.5t35.5 -96.5q0 -66 -43.5 -109t-140.5 -43q-80 0 -115.5 34.5t-35.5 98.5zM847 1589q0 67 46.5 109.5 t131.5 42.5q86 0 122 -36.5t36 -96.5q0 -66 -43.5 -109t-141.5 -43q-79 0 -115 34.5t-36 98.5z" />
<glyph unicode="&#xdd;" horiz-adv-x="1447" d="M32 1312q0 28 15 40.5t44 12.5h497q17 -37 17 -74q0 -36 -13 -49.5t-42 -13.5h-48q41 -117 144.5 -362.5t117.5 -245.5t103 236t126 372h-93q-17 44 -17 84q0 28 14.5 40.5t43.5 12.5h439q17 -37 17 -74q0 -36 -13 -49.5t-41 -13.5h-48q-113 -205 -416 -790 q0 -173 6 -301h162q17 -36 17 -74q0 -35 -13 -49t-41 -14h-600q-17 44 -17 85q0 27 14.5 39.5t43.5 12.5h112q7 128 7 274q-320 623 -436 817h-85q-17 44 -17 84zM526 1553l329 238q116 -80 116 -160q0 -117 -383 -177z" />
<glyph unicode="&#xde;" horiz-adv-x="1334" d="M91 85q0 27 15 39.5t44 12.5h93q5 128 5 670q-1 293 -6 421h-133q-18 44 -18 84q0 28 15 40.5t44 12.5h547q17 -37 17 -74q0 -36 -13 -49.5t-42 -13.5h-92q-5 -56 -5 -95h75q368 0 502 -93t134 -307q0 -221 -152.5 -346t-511.5 -125h-47q0 -48 1 -125h173q17 -36 17 -74 q0 -35 -13 -49t-41 -14h-590q-18 44 -18 85zM562 425h88q134 0 206 55t72 190q0 129 -68 200.5t-193 71.5q-59 0 -100 -10q-5 -64 -5 -358v-149z" />
<glyph unicode="&#xdf;" horiz-adv-x="1311" d="M69 68q0 35 16 52t50 17h75q6 147 5 273q0 221 -3.5 293.5t-15 106t-31.5 42t-78 8.5q-18 39 -18 79q0 42 35.5 55t110.5 13q0 199 132 308.5t356 109.5q186 0 283 -75t97 -209q0 -62 -21 -124.5t-53 -122.5q-26 -49 -43 -81.5t-17 -49.5q0 -19 30.5 -47.5t108.5 -103.5 q78 -69 135 -145t57 -173q0 -147 -118.5 -230.5t-335.5 -83.5q-78 0 -114 15t-36 70q0 73 31 122q78 -34 132 -34q63 0 93.5 38.5t30.5 103.5q0 70 -52 128.5t-113 116.5q-45 43 -85.5 84t-40.5 76q0 27 15 58t40 88q23 53 41 117.5t18 113.5q0 91 -42.5 133t-104.5 42 q-74 0 -108 -54t-34 -200v-588q0 -126 5 -273h73q18 -33 18 -66q0 -40 -17.5 -55.5t-59.5 -15.5h-429q-18 35 -18 68z" />
<glyph unicode="&#xe0;" horiz-adv-x="1108" d="M71 235q0 169 116 251t366 82h109q-9 154 -51 210.5t-126 56.5q-46 0 -100 -12q-35 -66 -41.5 -70t-69 -18t-88.5 9t-52.5 81t-26.5 98q0 25 20.5 39t151.5 30t279 16q176 0 276 -60.5t100 -234.5v-265q0 -221 19 -271.5t68 -39.5q15 -28 15 -55q0 -45 -53.5 -68.5 t-144.5 -23.5q-40 0 -63 10t-72 77q-75 -38 -171 -67.5t-181 -29.5q-145 0 -212.5 67t-67.5 188zM296 1362q0 81 165 142l215 -312l-104 -96q-276 162 -276 266zM360 290q0 -68 35.5 -102.5t103.5 -34.5q54 0 95.5 23t54.5 65.5t13 110.5v57q-72 15 -146 15q-84 0 -120 -28 t-36 -106z" />
<glyph unicode="&#xe1;" horiz-adv-x="1108" d="M71 235q0 169 116 251t366 82h109q-9 154 -51 210.5t-126 56.5q-46 0 -100 -12q-35 -66 -41.5 -70t-69 -18t-88.5 9t-52.5 81t-26.5 98q0 25 20.5 39t151.5 30t279 16q176 0 276 -60.5t100 -234.5v-265q0 -221 19 -271.5t68 -39.5q15 -28 15 -55q0 -45 -53.5 -68.5 t-144.5 -23.5q-40 0 -63 10t-72 77q-75 -38 -171 -67.5t-181 -29.5q-145 0 -212.5 67t-67.5 188zM360 290q0 -68 35.5 -102.5t103.5 -34.5q54 0 95.5 23t54.5 65.5t13 110.5v57q-72 15 -146 15q-84 0 -120 -28t-36 -106zM366 1192l214 312q166 -61 166 -142 q0 -104 -276 -266z" />
<glyph unicode="&#xe2;" horiz-adv-x="1108" d="M71 235q0 169 116 251t366 82h109q-9 154 -51 210.5t-126 56.5q-46 0 -100 -12q-35 -66 -41.5 -70t-69 -18t-88.5 9t-52.5 81t-26.5 98q0 25 20.5 39t151.5 30t279 16q176 0 276 -60.5t100 -234.5v-265q0 -221 19 -271.5t68 -39.5q15 -28 15 -55q0 -45 -53.5 -68.5 t-144.5 -23.5q-40 0 -63 10t-72 77q-75 -38 -171 -67.5t-181 -29.5q-145 0 -212.5 67t-67.5 188zM238 1192q132 156 277 299q146 -144 277 -299l-49 -73q-160 89 -229 126q-67 -37 -228 -126zM360 290q0 -68 35.5 -102.5t103.5 -34.5q54 0 95.5 23t54.5 65.5t13 110.5v57 q-72 15 -146 15q-84 0 -120 -28t-36 -106z" />
<glyph unicode="&#xe3;" horiz-adv-x="1108" d="M71 235q0 169 116 251t366 82h109q-9 154 -51 210.5t-126 56.5q-46 0 -100 -12q-35 -66 -41.5 -70t-69 -18t-88.5 9t-52.5 81t-26.5 98q0 25 20.5 39t151.5 30t279 16q176 0 276 -60.5t100 -234.5v-265q0 -221 19 -271.5t68 -39.5q15 -28 15 -55q0 -45 -53.5 -68.5 t-144.5 -23.5q-40 0 -63 10t-72 77q-75 -38 -171 -67.5t-181 -29.5q-145 0 -212.5 67t-67.5 188zM183 1251q0 63 85 127.5t159 64.5q59 0 220 -145q46 69 96 164q122 -39 122 -121q0 -73 -90 -137.5t-155 -64.5q-58 0 -219 146q-46 -69 -96 -165q-122 40 -122 131zM360 290 q0 -68 35.5 -102.5t103.5 -34.5q54 0 95.5 23t54.5 65.5t13 110.5v57q-72 15 -146 15q-84 0 -120 -28t-36 -106z" />
<glyph unicode="&#xe4;" horiz-adv-x="1108" d="M71 235q0 169 116 251t366 82h109q-9 154 -51 210.5t-126 56.5q-46 0 -100 -12q-35 -66 -41.5 -70t-69 -18t-88.5 9t-52.5 81t-26.5 98q0 25 20.5 39t151.5 30t279 16q176 0 276 -60.5t100 -234.5v-265q0 -221 19 -271.5t68 -39.5q15 -28 15 -55q0 -45 -53.5 -68.5 t-144.5 -23.5q-40 0 -63 10t-72 77q-75 -38 -171 -67.5t-181 -29.5q-145 0 -212.5 67t-67.5 188zM113 1269q0 66 50.5 108.5t126.5 42.5q77 0 117 -36.5t40 -95.5q0 -65 -48 -108t-136 -43q-70 0 -110 34.5t-40 97.5zM360 290q0 -68 35.5 -102.5t103.5 -34.5q54 0 95.5 23 t54.5 65.5t13 110.5v57q-72 15 -146 15q-84 0 -120 -28t-36 -106zM584 1269q0 66 50.5 108.5t126.5 42.5q77 0 117 -36.5t40 -95.5q0 -65 -47.5 -108t-135.5 -43q-71 0 -111 34.5t-40 97.5z" />
<glyph unicode="&#xe5;" horiz-adv-x="1108" d="M71 235q0 169 116 251t366 82h109q-9 154 -51 210.5t-126 56.5q-46 0 -100 -12q-35 -66 -41.5 -70t-69 -18t-88.5 9t-52.5 81t-26.5 98q0 25 20.5 39t151.5 30t279 16q176 0 276 -60.5t100 -234.5v-265q0 -221 19 -271.5t68 -39.5q15 -28 15 -55q0 -45 -53.5 -68.5 t-144.5 -23.5q-40 0 -63 10t-72 77q-75 -38 -171 -67.5t-181 -29.5q-145 0 -212.5 67t-67.5 188zM252 1281q0 93 67.5 155t213.5 62q132 0 189 -44.5t57 -137.5t-68 -155t-205 -62q-141 0 -197.5 44.5t-56.5 137.5zM360 290q0 -68 35.5 -102.5t103.5 -34.5q54 0 95.5 23 t54.5 65.5t13 110.5v57q-72 15 -146 15q-84 0 -120 -28t-36 -106zM375 1299q0 -47 34.5 -76.5t105.5 -29.5q78 0 109.5 29.5t31.5 76.5q0 46 -34.5 75.5t-106.5 29.5q-78 0 -109 -29.5t-31 -75.5z" />
<glyph unicode="&#xe6;" horiz-adv-x="1602" d="M71 235q0 169 116 251t366 82h109q-9 154 -51 210.5t-126 56.5q-46 0 -100 -12q-35 -66 -41.5 -70t-69 -18t-88.5 9t-52.5 81t-26.5 98q0 25 20.5 39t151.5 30t238 16q206 0 303 -108q137 118 322 118q189 0 283 -94.5t94 -298.5q0 -101 -40 -144t-175 -43h-372 q4 -131 59.5 -205.5t196.5 -74.5q138 0 284 80q52 -51 52 -110q0 -80 -117.5 -111.5t-274.5 -31.5q-253 0 -374 117q-127 -64 -225.5 -93t-181.5 -29q-145 0 -212.5 67t-67.5 188zM360 290q0 -68 35.5 -102.5t103.5 -34.5q54 0 95.5 23t54.5 65.5t13 110.5v57 q-72 15 -146 15q-84 0 -120 -28t-36 -106zM930 576h53q111 0 169.5 6.5t68.5 22t10 51.5q0 90 -39 139.5t-109 49.5q-74 0 -113 -60t-40 -209z" />
<glyph unicode="&#xe7;" horiz-adv-x="981" d="M69 434q0 280 143.5 432t428.5 152q150 0 207.5 -26t59.5 -87q0 -78 -49 -142q-166 82 -270 82t-153.5 -73.5t-49.5 -258.5q0 -183 48.5 -271.5t176.5 -88.5q104 0 267 77q42 -58 42 -122q0 -65 -106 -97q-100 -29 -232 -31l-38 -82q168 0 225.5 -36t57.5 -107 q0 -87 -91.5 -140t-247.5 -53q-99 0 -135.5 12.5t-36.5 49.5q0 45 33 81q71 -33 153 -33q43 0 62 12.5t19 43.5q0 39 -22 59t-69 20q-29 0 -46 -1.5t-32 16.5t-13 30t26 136q-167 20 -248 94q-110 103 -110 352z" />
<glyph unicode="&#xe8;" horiz-adv-x="1058" d="M69 458q0 263 138.5 411.5t371.5 148.5q208 0 302 -94.5t94 -298.5q0 -101 -40 -144t-175 -43h-372q3 -131 59 -205.5t197 -74.5q138 0 284 80q52 -51 52 -110q0 -80 -117.5 -111.5t-275.5 -31.5q-272 0 -395 110t-123 363zM324 1362q0 81 165 142l215 -312l-104 -96 q-276 162 -276 266zM386 576h53q111 0 169.5 6.5t68.5 22t10 51.5q0 90 -39 139.5t-109 49.5q-74 0 -113 -60t-40 -209z" />
<glyph unicode="&#xe9;" horiz-adv-x="1058" d="M69 458q0 263 138.5 411.5t371.5 148.5q208 0 302 -94.5t94 -298.5q0 -101 -40 -144t-175 -43h-372q3 -131 59 -205.5t197 -74.5q138 0 284 80q52 -51 52 -110q0 -80 -117.5 -111.5t-275.5 -31.5q-272 0 -395 110t-123 363zM386 576h53q111 0 169.5 6.5t68.5 22t10 51.5 q0 90 -39 139.5t-109 49.5q-74 0 -113 -60t-40 -209zM404 1192l214 312q166 -61 166 -142q0 -104 -276 -266z" />
<glyph unicode="&#xea;" horiz-adv-x="1058" d="M69 458q0 263 138.5 411.5t371.5 148.5q208 0 302 -94.5t94 -298.5q0 -101 -40 -144t-175 -43h-372q3 -131 59 -205.5t197 -74.5q138 0 284 80q52 -51 52 -110q0 -80 -117.5 -111.5t-275.5 -31.5q-272 0 -395 110t-123 363zM274 1192q132 156 277 299q146 -144 277 -299 l-49 -73q-160 89 -229 126q-67 -37 -228 -126zM386 576h53q111 0 169.5 6.5t68.5 22t10 51.5q0 90 -39 139.5t-109 49.5q-74 0 -113 -60t-40 -209z" />
<glyph unicode="&#xeb;" horiz-adv-x="1058" d="M69 458q0 263 138.5 411.5t371.5 148.5q208 0 302 -94.5t94 -298.5q0 -101 -40 -144t-175 -43h-372q3 -131 59 -205.5t197 -74.5q138 0 284 80q52 -51 52 -110q0 -80 -117.5 -111.5t-275.5 -31.5q-272 0 -395 110t-123 363zM160 1269q0 66 50.5 108.5t126.5 42.5 q77 0 117 -36.5t40 -95.5q0 -65 -48 -108t-136 -43q-70 0 -110 34.5t-40 97.5zM386 576h53q111 0 169.5 6.5t68.5 22t10 51.5q0 90 -39 139.5t-109 49.5q-74 0 -113 -60t-40 -209zM631 1269q0 66 50.5 108.5t126.5 42.5q77 0 117 -36.5t40 -95.5q0 -65 -47.5 -108 t-135.5 -43q-71 0 -111 34.5t-40 97.5z" />
<glyph unicode="&#xec;" horiz-adv-x="658" d="M44 1362q0 81 166 142l214 -312l-104 -96q-276 162 -276 266zM75 79q0 31 14 44.5t45 13.5h82q5 128 5 273q0 221 -3.5 293.5t-15.5 106t-37 42t-73 8.5q-17 28 -17 65q0 56 46 69t187 13q106 0 144.5 -8t44.5 -31.5t6 -65.5v-492q0 -145 5 -273h118q17 -33 17 -74 q0 -35 -14.5 -49t-56.5 -14h-480q-17 42 -17 79z" />
<glyph unicode="&#xed;" horiz-adv-x="658" d="M50 79q0 31 14 44.5t45 13.5h82q5 128 5 273q0 221 -3.5 293.5t-15.5 106t-37 42t-73 8.5q-17 28 -17 65q0 56 46 69t187 13q106 0 144.5 -8t44 -31.5t5.5 -65.5v-492q1 -145 6 -273h118q17 -33 17 -74q0 -35 -14.5 -49t-56.5 -14h-480q-17 42 -17 79zM169 1192l214 312 q166 -61 166 -142q0 -104 -276 -266z" />
<glyph unicode="&#xee;" horiz-adv-x="658" d="M32 1192q132 156 277 299q146 -144 277 -299l-49 -73q-160 89 -229 126q-67 -37 -227 -126zM73 79q0 31 14 44.5t45 13.5h82q5 128 5 273q0 221 -3.5 293.5t-15.5 106t-37 42t-73 8.5q-17 28 -17 65q0 56 46 69t187 13q106 0 144.5 -8t44.5 -31.5t6 -65.5v-492 q0 -145 5 -273h118q17 -33 17 -74q0 -35 -14.5 -49t-56.5 -14h-480q-17 42 -17 79z" />
<glyph unicode="&#xef;" horiz-adv-x="830" d="M-16 1269q0 66 51 108.5t126 42.5q77 0 117 -36.5t40 -95.5q0 -65 -47.5 -108t-135.5 -43q-71 0 -111 34.5t-40 97.5zM128 79q0 31 14 44.5t45 13.5h82q5 128 5 273q0 221 -3.5 293.5t-15.5 106t-37 42t-72 8.5q-18 28 -18 65q0 56 46 69t187 13q106 0 144.5 -8 t44.5 -31.5t6 -65.5v-492q0 -145 5 -273h118q17 -33 17 -74q0 -35 -14 -49t-57 -14h-480q-17 42 -17 79zM456 1269q0 66 50.5 108.5t126.5 42.5q77 0 117 -36.5t40 -95.5q0 -65 -48 -108t-136 -43q-70 0 -110 34.5t-40 97.5z" />
<glyph unicode="&#xf0;" horiz-adv-x="1111" d="M69 436q0 277 137.5 429.5t390.5 152.5q59 0 116 -12q-48 114 -118 213l-196 -92q-35 34 -52 68q-11 27 -7 43.5t36 30.5l129 59q-86 92 -196 166l179 93q124 -73 220 -164l94 43l107 51q29 -21 51 -68q11 -31 5.5 -45.5t-36.5 -30.5l-122 -57q236 -296 236 -731 q0 -300 -137 -452.5t-386 -152.5q-224 0 -337.5 117t-113.5 339zM386 530q0 -203 43.5 -290t137.5 -87q81 0 120.5 64.5t39.5 251.5q0 226 -23 345q-71 31 -152 31q-87 0 -126.5 -64.5t-39.5 -250.5z" />
<glyph unicode="&#xf1;" horiz-adv-x="1257" d="M69 79q0 31 14 44.5t45 13.5h73q5 165 5 341q0 280 -26.5 331t-92.5 51q-18 40 -18 80q0 36 26.5 47t330.5 20q5 -42 0 -115q109 68 209.5 96.5t168.5 28.5q141 0 209.5 -62t68.5 -250q0 -492 18 -530.5t78 -37.5q15 -36 15 -75q0 -36 -23.5 -49t-89.5 -13q-162 0 -205 5 t-59 32.5t-16 92.5v353q0 204 -37.5 273.5t-121.5 69.5q-71 0 -112 -41.5t-41 -173.5v-201q0 -126 5 -273h119q17 -33 17 -74q0 -35 -14.5 -49t-56.5 -14h-471q-18 42 -18 79zM291 1251q0 63 85 127.5t159 64.5q59 0 220 -145q46 69 95 164q123 -39 123 -121 q0 -73 -90 -137.5t-155 -64.5q-59 0 -219 146q-46 -69 -96 -165q-122 40 -122 131z" />
<glyph unicode="&#xf2;" horiz-adv-x="1111" d="M69 436q0 277 137.5 429.5t386.5 152.5q224 0 337 -117t113 -339q0 -277 -137 -429.5t-386 -152.5q-224 0 -337.5 117t-113.5 339zM310 1362q0 81 165 142l215 -312l-104 -96q-276 162 -276 266zM386 530q0 -203 43.5 -290t137.5 -87q81 0 120.5 64.5t39.5 250.5 q0 203 -43.5 290t-137.5 87q-81 0 -120.5 -64.5t-39.5 -250.5z" />
<glyph unicode="&#xf3;" horiz-adv-x="1111" d="M69 436q0 277 137.5 429.5t386.5 152.5q224 0 337 -117t113 -339q0 -277 -137 -429.5t-386 -152.5q-224 0 -337.5 117t-113.5 339zM386 530q0 -203 43.5 -290t137.5 -87q81 0 120.5 64.5t39.5 250.5q0 203 -43.5 290t-137.5 87q-81 0 -120.5 -64.5t-39.5 -250.5z M421 1192l214 312q166 -61 166 -142q0 -104 -276 -266z" />
<glyph unicode="&#xf4;" horiz-adv-x="1111" d="M69 436q0 277 137.5 429.5t386.5 152.5q224 0 337 -117t113 -339q0 -277 -137 -429.5t-386 -152.5q-224 0 -337.5 117t-113.5 339zM290 1192q132 156 278 299q145 -144 276 -299l-49 -73q-160 89 -228 126q-68 -37 -228 -126zM386 530q0 -203 43.5 -290t137.5 -87 q81 0 120.5 64.5t39.5 250.5q0 203 -43.5 290t-137.5 87q-81 0 -120.5 -64.5t-39.5 -250.5z" />
<glyph unicode="&#xf5;" horiz-adv-x="1111" d="M69 436q0 277 137.5 429.5t386.5 152.5q224 0 337 -117t113 -339q0 -277 -137 -429.5t-386 -152.5q-224 0 -337.5 117t-113.5 339zM231 1251q0 63 85 127.5t160 64.5q58 0 219 -145q46 69 96 164q122 -39 122 -121q0 -73 -90 -137.5t-155 -64.5q-58 0 -219 146 q-46 -69 -96 -165q-122 40 -122 131zM386 530q0 -203 43.5 -290t137.5 -87q81 0 120.5 64.5t39.5 250.5q0 203 -43.5 290t-137.5 87q-81 0 -120.5 -64.5t-39.5 -250.5z" />
<glyph unicode="&#xf6;" horiz-adv-x="1111" d="M69 436q0 277 137.5 429.5t386.5 152.5q224 0 337 -117t113 -339q0 -277 -137 -429.5t-386 -152.5q-224 0 -337.5 117t-113.5 339zM169 1269q0 66 50.5 108.5t126.5 42.5q77 0 117 -36.5t40 -95.5q0 -65 -48 -108t-136 -43q-70 0 -110 34.5t-40 97.5zM386 530 q0 -203 43.5 -290t137.5 -87q81 0 120.5 64.5t39.5 250.5q0 203 -43.5 290t-137.5 87q-81 0 -120.5 -64.5t-39.5 -250.5zM640 1269q0 66 50.5 108.5t126.5 42.5q77 0 117 -36.5t40 -95.5q0 -65 -47.5 -108t-135.5 -43q-71 0 -111 34.5t-40 97.5z" />
<glyph unicode="&#xf7;" d="M137 697q0 54 18 76t49 22h927q18 -52 18 -114q0 -40 -17.5 -65t-60.5 -25h-916q-18 63 -18 106zM457 243q0 69 49 105.5t137 36.5q97 0 142 -36.5t45 -105.5t-49.5 -105.5t-137.5 -36.5q-96 0 -141 36.5t-45 105.5zM457 1144q0 68 49 104.5t137 36.5q97 0 142 -36.5 t45 -104.5q0 -69 -49.5 -105.5t-137.5 -36.5q-96 0 -141 36.5t-45 105.5z" />
<glyph unicode="&#xf8;" horiz-adv-x="1111" d="M69 436q0 277 137.5 429.5t384.5 152.5q6 0 10 -1l81 217q74 -9 178 -48q50 -18 55.5 -39t-4.5 -50l-52 -140q40 -24 71 -57q113 -116 113 -338q0 -277 -137 -429.5t-386 -152.5q-9 0 -16 1l-77 -211q-55 2 -184 50q-38 13 -47 34.5t4 61.5l47 129q-36 22 -64 52 q-114 117 -114 339zM367 530q0 -172 47 -292l209 593q-40 14 -96 14q-80 0 -120 -64.5t-40 -250.5zM483 170q42 -17 103 -17q80 0 120 64.5t40 255.5q0 172 -53 293z" />
<glyph unicode="&#xf9;" horiz-adv-x="1185" d="M18 925q0 46 56 64t177 18q87 0 123 -10.5t44.5 -31.5t8.5 -141v-356q0 -195 37 -255t105 -60q51 0 94 22.5t54 59t11 131.5q0 265 -1 337t-11 106t-25.5 42.5t-53.5 8.5q-18 28 -18 65q0 46 56.5 64t158.5 18q87 0 123 -10.5t44.5 -36t8.5 -146.5v-372 q0 -199 14.5 -246.5t73.5 -42.5q14 -33 14 -63q0 -49 -73 -74.5t-134 -25.5q-47 0 -66 14.5t-59 72.5q-93 -47 -178.5 -72t-182.5 -25q-128 0 -201 67.5t-73 274.5q0 309 -3.5 381.5t-15.5 106t-32 42t-58 8.5q-18 28 -18 65zM324 1362q0 81 165 142l215 -312l-104 -96 q-276 162 -276 266z" />
<glyph unicode="&#xfa;" horiz-adv-x="1185" d="M18 925q0 46 56 64t177 18q87 0 123 -10.5t44.5 -31.5t8.5 -141v-356q0 -195 37 -255t105 -60q51 0 94 22.5t54 59t11 131.5q0 265 -1 337t-11 106t-25.5 42.5t-53.5 8.5q-18 28 -18 65q0 46 56.5 64t158.5 18q87 0 123 -10.5t44.5 -36t8.5 -146.5v-372 q0 -199 14.5 -246.5t73.5 -42.5q14 -33 14 -63q0 -49 -73 -74.5t-134 -25.5q-47 0 -66 14.5t-59 72.5q-93 -47 -178.5 -72t-182.5 -25q-128 0 -201 67.5t-73 274.5q0 309 -3.5 381.5t-15.5 106t-32 42t-58 8.5q-18 28 -18 65zM405 1192l214 312q166 -61 166 -142 q0 -104 -276 -266z" />
<glyph unicode="&#xfb;" horiz-adv-x="1185" d="M18 925q0 46 56 64t177 18q87 0 123 -10.5t44.5 -31.5t8.5 -141v-356q0 -195 37 -255t105 -60q51 0 94 22.5t54 59t11 131.5q0 265 -1 337t-11 106t-25.5 42.5t-53.5 8.5q-18 28 -18 65q0 46 56.5 64t158.5 18q87 0 123 -10.5t44.5 -36t8.5 -146.5v-372 q0 -199 14.5 -246.5t73.5 -42.5q14 -33 14 -63q0 -49 -73 -74.5t-134 -25.5q-47 0 -66 14.5t-59 72.5q-93 -47 -178.5 -72t-182.5 -25q-128 0 -201 67.5t-73 274.5q0 309 -3.5 381.5t-15.5 106t-32 42t-58 8.5q-18 28 -18 65zM267 1192q132 156 278 299q145 -144 276 -299 l-48 -73q-161 89 -229 126q-68 -37 -228 -126z" />
<glyph unicode="&#xfc;" horiz-adv-x="1185" d="M18 925q0 46 56 64t177 18q87 0 123 -10.5t44.5 -31.5t8.5 -141v-356q0 -195 37 -255t105 -60q51 0 94 22.5t54 59t11 131.5q0 265 -1 337t-11 106t-25.5 42.5t-53.5 8.5q-18 28 -18 65q0 46 56.5 64t158.5 18q87 0 123 -10.5t44.5 -36t8.5 -146.5v-372 q0 -199 14.5 -246.5t73.5 -42.5q14 -33 14 -63q0 -49 -73 -74.5t-134 -25.5q-47 0 -66 14.5t-59 72.5q-93 -47 -178.5 -72t-182.5 -25q-128 0 -201 67.5t-73 274.5q0 309 -3.5 381.5t-15.5 106t-32 42t-58 8.5q-18 28 -18 65zM134 1269q0 66 50.5 108.5t126.5 42.5 q77 0 117 -36.5t40 -95.5q0 -65 -48 -108t-136 -43q-70 0 -110 34.5t-40 97.5zM605 1269q0 66 50.5 108.5t126.5 42.5q77 0 117 -36.5t40 -95.5q0 -65 -47.5 -108t-135.5 -43q-71 0 -111 34.5t-40 97.5z" />
<glyph unicode="&#xfd;" horiz-adv-x="1134" d="M-1 -341q0 64 43 117q214 -45 310.5 -39t174.5 253q-157 -4 -169.5 2.5t-90 323t-97 388.5t-31.5 105.5t-33 42t-69 8.5q-17 46 -17 84q0 46 41 54.5t181 8.5q94 0 129.5 -12t49 -43.5t41.5 -192t72.5 -380t57.5 -219.5t85.5 296.5t83.5 384.5h-54q-18 35 -18 74 t15.5 56.5t50.5 17.5h340q18 -34 18 -72q0 -44 -17 -60t-59 -16h-18q-31 -81 -173.5 -568t-219.5 -575.5t-181.5 -113t-231.5 -24.5q-130 0 -172 22.5t-42 76.5zM374 1192l214 312q166 -61 166 -142q0 -104 -276 -266z" />
<glyph unicode="&#xfe;" horiz-adv-x="1180" d="M39 1360q0 42 31 53.5t202 11.5q106 0 144.5 -8.5t44.5 -31.5t6 -65v-396q47 40 115 67t154 27q193 0 284.5 -106.5t91.5 -336.5q0 -309 -136.5 -452t-364.5 -143q-57 0 -91.5 4t-52.5 8q0 -148 5 -295h139q17 -33 17 -74q0 -35 -14.5 -49t-56.5 -14h-491q-18 42 -18 79 q0 31 14 44.5t45 13.5h73q5 147 5 392v393q0 454 -3.5 570t-15 158.5t-38.5 55t-72 12.5q-17 41 -17 82zM467 197q32 -19 66.5 -31.5t86.5 -12.5q87 0 131.5 59.5t44.5 256.5q0 234 -45.5 305t-126.5 71q-47 0 -86 -24.5t-55 -79.5t-16 -152v-392z" />
<glyph unicode="&#xff;" horiz-adv-x="1134" d="M-1 -341q0 64 43 117q214 -45 310.5 -39t174.5 253q-157 -4 -169.5 2.5t-90 323t-97 388.5t-31.5 105.5t-33 42t-69 8.5q-17 46 -17 84q0 46 41 54.5t181 8.5q94 0 129.5 -12t49 -43.5t41.5 -192t72.5 -380t57.5 -219.5t85.5 296.5t83.5 384.5h-54q-18 35 -18 74 t15.5 56.5t50.5 17.5h340q18 -34 18 -72q0 -44 -17 -60t-59 -16h-18q-31 -81 -173.5 -568t-219.5 -575.5t-181.5 -113t-231.5 -24.5q-130 0 -172 22.5t-42 76.5zM178 1269q0 66 50.5 108.5t126.5 42.5q77 0 117 -36.5t40 -95.5q0 -65 -48 -108t-136 -43q-70 0 -110 34.5 t-40 97.5zM649 1269q0 66 50.5 108.5t126.5 42.5q77 0 117 -36.5t40 -95.5q0 -65 -47.5 -108t-135.5 -43q-71 0 -111 34.5t-40 97.5z" />
<glyph unicode="&#x152;" horiz-adv-x="1882" d="M112 619q0 370 181.5 558t583.5 188h798q64 0 91.5 -19.5t27.5 -80.5q0 -74 -49 -152q-210 85 -547 85q-5 -98 -5 -399h464q17 -53 17 -110q0 -34 -12 -45.5t-46 -11.5h-423q1 -385 5 -465h46q337 0 534 79q44 -66 44 -143q0 -55 -41 -79t-166 -24h-820 q-377 0 -530 137.5t-153 481.5zM456 716q0 -301 81 -412.5t341 -111.5q5 73 5 496q0 282 -5 485q-290 0 -356 -108.5t-66 -348.5z" />
<glyph unicode="&#x153;" horiz-adv-x="1710" d="M69 436q0 277 137.5 429.5t386.5 152.5q203 0 321 -115q131 115 328 115q199 0 293 -94.5t94 -298.5q0 -101 -40 -144t-175 -43h-372q3 -131 59 -205.5t197 -74.5q138 0 284 80q52 -51 52 -110q0 -80 -117.5 -111.5t-265.5 -31.5q-270 0 -394 115q-132 -120 -347 -120 q-214 0 -327.5 117t-113.5 339zM386 530q0 -203 43.5 -290t137.5 -87q81 0 120.5 64.5t39.5 250.5q0 203 -43.5 290t-137.5 87q-81 0 -120.5 -64.5t-39.5 -250.5zM1040 576h53q111 0 169.5 6.5t68.5 22t10 51.5q0 90 -39 139.5t-109 49.5q-74 0 -113 -60t-40 -209z" />
<glyph unicode="&#x178;" horiz-adv-x="1447" d="M32 1312q0 28 15 40.5t44 12.5h497q17 -37 17 -74q0 -36 -13 -49.5t-42 -13.5h-48q41 -117 144.5 -362.5t117.5 -245.5t103 236t126 372h-93q-17 44 -17 84q0 28 14.5 40.5t43.5 12.5h439q17 -37 17 -74q0 -36 -13 -49.5t-41 -13.5h-48q-113 -205 -416 -790 q0 -173 6 -301h162q17 -36 17 -74q0 -35 -13 -49t-41 -14h-600q-17 44 -17 85q0 27 14.5 39.5t43.5 12.5h112q7 128 7 274q-320 623 -436 817h-85q-17 44 -17 84zM308 1589q0 67 46.5 109.5t131.5 42.5q86 0 121.5 -36.5t35.5 -96.5q0 -66 -43.5 -109t-140.5 -43 q-80 0 -115.5 34.5t-35.5 98.5zM819 1589q0 67 46.5 109.5t131.5 42.5q87 0 122.5 -36.5t35.5 -96.5q0 -66 -43.5 -109t-140.5 -43q-80 0 -116 34.5t-36 98.5z" />
<glyph unicode="&#x2c6;" horiz-adv-x="576" d="M11 1192q132 156 277 299q146 -144 277 -299l-49 -73q-160 89 -229 126q-67 -37 -228 -126z" />
<glyph unicode="&#x2dc;" horiz-adv-x="704" d="M11 1251q0 63 85 127.5t159 64.5q59 0 220 -145q45 69 95 164q122 -39 122 -121q0 -73 -90 -137.5t-154 -64.5q-59 0 -220 146q-45 -69 -95 -165q-122 40 -122 131z" />
<glyph unicode="&#x2000;" horiz-adv-x="954" />
<glyph unicode="&#x2001;" horiz-adv-x="1908" />
<glyph unicode="&#x2002;" horiz-adv-x="954" />
<glyph unicode="&#x2003;" horiz-adv-x="1908" />
<glyph unicode="&#x2004;" horiz-adv-x="636" />
<glyph unicode="&#x2005;" horiz-adv-x="477" />
<glyph unicode="&#x2006;" horiz-adv-x="318" />
<glyph unicode="&#x2007;" horiz-adv-x="318" />
<glyph unicode="&#x2008;" horiz-adv-x="238" />
<glyph unicode="&#x2009;" horiz-adv-x="381" />
<glyph unicode="&#x200a;" horiz-adv-x="106" />
<glyph unicode="&#x2010;" horiz-adv-x="768" d="M81 547q0 54 18 71.5t49 17.5h522q18 -44 18 -115q0 -49 -17.5 -69.5t-60.5 -20.5h-511q-18 54 -18 116z" />
<glyph unicode="&#x2011;" horiz-adv-x="768" d="M81 547q0 54 18 71.5t49 17.5h522q18 -44 18 -115q0 -49 -17.5 -69.5t-60.5 -20.5h-511q-18 54 -18 116z" />
<glyph unicode="&#x2012;" horiz-adv-x="768" d="M81 547q0 54 18 71.5t49 17.5h522q18 -44 18 -115q0 -49 -17.5 -69.5t-60.5 -20.5h-511q-18 54 -18 116z" />
<glyph unicode="&#x2013;" horiz-adv-x="1024" d="M0 538q0 54 18 66.5t49 12.5h940q17 -34 17 -105q0 -50 -17 -65.5t-61 -15.5h-929q-17 45 -17 107z" />
<glyph unicode="&#x2014;" horiz-adv-x="2048" d="M0 538q0 54 18 66.5t49 12.5h1964q17 -34 17 -105q0 -50 -17 -65.5t-61 -15.5h-1953q-17 45 -17 107z" />
<glyph unicode="&#x2018;" horiz-adv-x="620" d="M122 1043q0 146 104 264.5t241 118.5q35 0 54 -15t19 -53q0 -45 -21 -86q-69 16 -124.5 -5.5t-65.5 -124.5q57 -15 82.5 -48.5t25.5 -78.5q0 -63 -44 -102t-117 -39q-75 0 -114.5 42.5t-39.5 126.5z" />
<glyph unicode="&#x2019;" horiz-adv-x="620" d="M81 941q0 45 21 86q69 -16 124.5 5.5t65.5 124.5q-57 15 -82.5 48.5t-25.5 79.5q0 63 44 101.5t117 38.5q75 0 114.5 -40t39.5 -120q0 -155 -105 -273.5t-241 -118.5q-34 0 -53 15t-19 53z" />
<glyph unicode="&#x201a;" horiz-adv-x="620" d="M81 -221q0 46 21 87q69 -16 124.5 5.5t65.5 123.5q-57 16 -82.5 49.5t-25.5 78.5q0 63 44 101.5t117 38.5q75 0 114.5 -40t39.5 -119q0 -155 -105 -273.5t-241 -118.5q-34 0 -53 15t-19 52z" />
<glyph unicode="&#x201c;" horiz-adv-x="1168" d="M122 1043q0 146 104 264.5t241 118.5q35 0 54 -15t19 -53q0 -45 -21 -86q-69 16 -124.5 -5.5t-65.5 -124.5q57 -15 82.5 -48.5t25.5 -78.5q0 -63 -44 -102t-117 -39q-75 0 -114.5 42.5t-39.5 126.5zM669 1043q0 146 104 264.5t242 118.5q35 0 54 -15t19 -53 q0 -45 -22 -86q-68 16 -124 -5.5t-66 -124.5q58 -15 83.5 -48.5t25.5 -78.5q0 -63 -44 -102t-117 -39q-75 0 -115 42.5t-40 126.5z" />
<glyph unicode="&#x201d;" horiz-adv-x="1168" d="M81 941q0 45 21 86q69 -16 124.5 5.5t65.5 124.5q-57 15 -82.5 48.5t-25.5 79.5q0 63 44 101.5t117 38.5q75 0 114.5 -40t39.5 -120q0 -155 -105 -273.5t-241 -118.5q-34 0 -53 15t-19 53zM628 941q0 45 22 86q68 -16 124 5.5t66 124.5q-58 15 -83.5 48.5t-25.5 79.5 q0 63 44 101.5t117 38.5q75 0 115 -40t40 -120q0 -155 -105.5 -273.5t-240.5 -118.5q-35 0 -54 15t-19 53z" />
<glyph unicode="&#x201e;" horiz-adv-x="1168" d="M119 -354q0 45 21 86q69 -16 124.5 5.5t65.5 123.5q-57 16 -82.5 49.5t-25.5 78.5q0 63 44 102t117 39q75 0 115 -40.5t40 -119.5q0 -155 -105.5 -273.5t-240.5 -118.5q-35 0 -54 15t-19 53zM666 -354q0 45 22 86q68 -16 124 5.5t66 123.5q-58 16 -83.5 49.5t-25.5 78.5 q0 63 44.5 102t116.5 39q75 0 115 -40.5t40 -119.5q0 -155 -105 -273.5t-241 -118.5q-35 0 -54 15t-19 53z" />
<glyph unicode="&#x2022;" d="M324 577q0 130 84 199.5t235 69.5q166 0 242.5 -69.5t76.5 -199.5t-84 -199.5t-235 -69.5q-167 0 -243 69.5t-76 199.5z" />
<glyph unicode="&#x2026;" horiz-adv-x="2321" d="M275 122q0 69 49.5 105t137.5 36q97 0 142 -36t45 -105t-49.5 -105.5t-137.5 -36.5q-97 0 -142 36.5t-45 105.5zM917 122q0 69 49.5 105t137.5 36q96 0 141 -36t45 -105t-49 -105.5t-137 -36.5q-97 0 -142 36.5t-45 105.5zM1558 122q0 69 49.5 105t137.5 36q97 0 142 -36 t45 -105t-49.5 -105.5t-137.5 -36.5q-97 0 -142 36.5t-45 105.5z" />
<glyph unicode="&#x202f;" horiz-adv-x="381" />
<glyph unicode="&#x2039;" horiz-adv-x="920" d="M123 584q318 257 457 377q54 -36 106 -113q53 -79 -10 -123t-334 -183q217 -123 380 -206q-12 -64 -65 -141q-53 -79 -115 -46.5t-220.5 167.5t-178.5 159.5t-20 108.5z" />
<glyph unicode="&#x203a;" horiz-adv-x="920" d="M199 336q163 83 380 206q-271 139 -334.5 183t-9.5 123q52 77 106 113q139 -120 457 -377q0 -84 -20 -108.5t-178.5 -159.5t-220.5 -167.5t-116 46.5q-52 77 -64 141z" />
<glyph unicode="&#x205f;" horiz-adv-x="477" />
<glyph unicode="&#x20ac;" d="M32 509q0 54 18 66.5t48 12.5h105q-3 41 -2 87t6 97h-158q-17 44 -17 87q0 54 18 66.5t48 12.5h146q57 190 232 318.5t433 128.5q182 0 255 -41t73 -107q0 -70 -90 -161q-166 117 -341 117q-111 0 -170 -63.5t-76 -191.5h404q17 -33 17 -95q0 -40 -17.5 -55.5 t-60.5 -15.5h-355q-3 -41 -2.5 -85.5t4.5 -98.5h414q17 -33 17 -95q0 -40 -17.5 -55.5t-60.5 -15.5h-332q19 -101 90.5 -175.5t233.5 -74.5q131 0 260 95q82 -85 82 -151q0 -57 -91 -96.5t-263 -39.5q-289 0 -452.5 122.5t-204.5 319.5h-177q-17 44 -17 87z" />
<glyph unicode="&#x2122;" horiz-adv-x="1839" d="M32 1298q0 48 20 95q116 -28 294 -28h382q26 0 39 -8.5t13 -36.5q0 -61 -30 -108q-106 48 -237 48h-14q-3 -46 -3 -213q0 -307 3 -370h87q10 -21 10 -51q0 -20 -7 -28t-24 -8h-345q-11 25 -11 57q0 16 8.5 23t25.5 7h64q3 63 3 371q0 166 -3 212q-197 -11 -222 -11 q-28 0 -40.5 10t-12.5 39zM824 647q0 16 9 23t25 7h36q7 63 17 288.5t10 310.5h-64q-10 26 -10 58q0 17 8.5 24t24.5 7h305q52 -201 104 -380.5t57.5 -179.5t55 220.5t72.5 339.5h308q11 -21 11 -52q0 -20 -8 -28.5t-24 -8.5h-44q1 -85 11.5 -310.5t15.5 -288.5h55 q9 -21 9 -51q0 -20 -7 -28t-24 -8h-269q-10 25 -10 57q0 16 8 23t25 7h21q4 100 -6 532q-46 -208 -87.5 -341.5t-59 -169t-75.5 -35.5q-87 0 -97.5 6t-53.5 140t-113 400q-3 -432 0 -532h43q10 -21 10 -51q0 -20 -7.5 -28t-22.5 -8h-249q-10 25 -10 57z" />
<glyph unicode="&#x25fc;" horiz-adv-x="1004" d="M0 0v1005h1005v-1005h-1005z" />
</font>
</defs>
</svg>
